<?xml version="1.0" encoding="UTF-8"?>
<svg width="78px" height="80px" viewBox="0 0 78 80" version="1.1" xmlns="http://www.w3.org/2000/svg" xmlns:xlink="http://www.w3.org/1999/xlink">
    <!-- Generator: Sketch 45.2 (43514) - http://www.bohemiancoding.com/sketch -->
    <title>Group</title>
    <desc>Created with Sketch.</desc>
    <defs></defs>
    <g id="Design" stroke="none" stroke-width="1" fill="none" fill-rule="evenodd">
        <g id="H00_NEDC_Member" transform="translate(-1040.000000, -483.000000)">
            <g id="Group" transform="translate(1040.000000, 483.000000)">
                <ellipse id="Oval" fill="#ACD0DB" cx="38.9437109" cy="40" rx="38.9159138" ry="40"></ellipse>
                <g id="np_book_709757_000000" transform="translate(19.485754, 25.000000)" fill-rule="nonzero" fill="#CDE9F1">
                    <path d="M35.9972203,28.4438182 L35.9972203,5.52280444e-13 L34.2682987,5.52280444e-13 C27.2051409,5.52280444e-13 23.5291261,1.17952267 20.4308548,3.55618183 L20.4308548,32 C23.5291751,29.6252532 27.2031824,28.4438182 34.2682987,28.4438182 L35.9972203,28.4438182 Z" id="Shape"></path>
                    <path d="M1.67991066,30.4697802 L1.67991066,4 L-2.48134846e-14,5.76598412 L-2.48134846e-14,32.0154658 L5.04182521,32.0154658 C10.1930692,32.0154658 13.4880004,32.6750124 16.0840789,34 L18.4850591,34 C15.3704784,30.9090782 8.40188439,30.4700299 3.36005919,30.4700299 L1.68014853,30.4700299 L1.67991066,30.4697802 Z" id="Shape"></path>
                    <path d="M3.89159138,0.00150968558 L3.89159138,28.4439859 L5.62051298,28.4439859 C12.6836708,28.4439859 16.3596856,29.6254156 19.4579569,32 L19.4579569,3.55601405 C16.3596366,1.18137929 12.6856292,-9.64728297e-13 5.62051298,-9.64728297e-13 L3.89159138,0.00196561062 L3.89159138,0.00150968558 Z" id="Shape"></path>
                    <path d="M37.2357653,4 L37.2357653,30.4700005 L35.5558546,30.4700005 C30.5140294,30.4700005 23.545483,30.9071042 20.4308548,34 L22.8318349,34 C25.4279134,32.6750513 28.7247476,32.0154493 33.8740886,32.0154493 L38.9159138,32.0154493 L38.9159138,5.76574905 L37.2357653,4 Z" id="Shape"></path>
                </g>
            </g>
        </g>
    </g>
</svg>