<?xml version="1.0" encoding="UTF-8"?>
<svg width="56px" height="56px" viewBox="0 0 56 56" version="1.1" xmlns="http://www.w3.org/2000/svg" xmlns:xlink="http://www.w3.org/1999/xlink">
    <!-- Generator: Sketch 45 (43475) - http://www.bohemiancoding.com/sketch -->
    <title>Page 1</title>
    <desc>Created with Sketch.</desc>
    <defs></defs>
    <g id="Design" stroke="none" stroke-width="1" fill="none" fill-rule="evenodd">
        <g id="C00_NEDC_Research" transform="translate(-838.000000, -734.000000)" fill="#68CDEA">
            <g id="Page-1" transform="translate(838.000000, 734.000000)">
                <path d="M16.182862,10.7854064 C15.5122492,13.3797018 14.2127847,18.8328784 14.2127847,22.2088127 L16.4984759,22.2088127 C16.4984759,18.8603825 17.9743111,12.9548438 18.5474417,10.7854064 L19.9257948,10.7854064 L19.9257948,8.49971528 L2.78890377,8.49971528 L2.78890377,0.503330847 L0.503212633,0.503330847 L0.503212633,29.4604481 L2.78890377,29.4604481 L2.78890377,10.7849906 L4.20206705,10.7849906 C4.770582,12.9174786 6.2162221,18.6887046 6.2162221,22.2083969 L8.50191323,22.2083969 C8.50191323,18.6812791 7.23262606,13.3417426 6.56664682,10.7849906 L16.182862,10.7854064 Z" id="Fill-1"></path>
                <path d="M24.4923059,46.1985601 C24.4923059,49.3520856 21.9328214,51.9115684 18.7792959,51.9115684 C15.6373542,51.9115684 13.0662858,49.3520856 13.0662858,46.1985601 C13.0662858,43.0450346 15.6373542,40.48555 18.7792959,40.48555 C21.9328214,40.48555 24.4923059,43.0450346 24.4923059,46.1985601 Z" id="Fill-2"></path>
                <path d="M55.3360971,51.909077 C55.3360971,52.8233653 54.9810626,53.6911996 54.3313363,54.3316351 C53.0063281,55.6682271 50.8251288,55.6682271 49.4885368,54.3316351 L40.4876292,44.1515546 L40.4876292,39.6173593 L38.4781077,41.6268808 L40.4319675,51.2681645 C40.603681,52.194039 40.3971627,53.1083273 39.8843331,53.8624622 C39.3599079,54.6165971 38.5825519,55.1201656 37.6799068,55.2802596 C37.4733825,55.3150668 37.269181,55.3382713 37.0626389,55.3382713 C35.4406102,55.3382713 33.9903188,54.1734165 33.6932984,52.5281602 L31.0781522,39.3457994 L38.2969371,32.1270145 L34.7442755,27.0660831 L32.8484534,31.8532211 L24.6108884,35.6796761 C23.6061276,36.0463122 22.5897831,35.9766965 21.7427996,35.5195642 C20.886549,35.0624319 20.2576973,34.2641776 20.0302985,33.3151379 C19.607971,31.6582984 20.5895345,29.887819 22.246368,29.2473241 L27.5579252,26.5857239 L30.289147,19.6847508 C29.9341126,17.5244023 30.8367815,15.3663706 32.6420836,14.0994002 C34.6748321,12.6839195 37.3595999,12.7395812 39.3250436,14.2131055 L49.0685023,14.2131055 L54.7118908,22.5177972 C55.2270371,23.2371213 55.4428581,24.1398258 55.2943301,25.042471 C55.1574215,25.9451161 54.6654784,26.745705 53.9229273,27.2701243 C53.1803761,27.8061512 52.2660878,28.0242592 51.3634427,27.875749 C50.4607975,27.7272388 49.6717924,27.2468973 49.1357893,26.5043462 L45.5019224,21.0675057 L44.4971616,21.0675057 L48.5974101,26.929026 C50.367949,29.4652836 49.7970757,32.9389377 47.3397067,34.7769002 L47.3397067,41.4016443 L54.3660224,49.5233713 C54.9925573,50.16149 55.3359723,51.0061568 55.3359723,51.9088019 L55.3360971,51.909077 Z" id="Fill-3"></path>
                <path d="M23.3487772,8.49775495 C23.3487772,5.34422947 25.9198456,2.78474489 29.0617873,2.78474489 C32.2153127,2.78474489 34.7747973,5.34422947 34.7747973,8.49775495 C34.7747973,11.6512804 32.2153127,14.210765 29.0617873,14.210765 C25.9198456,14.210765 23.3487772,11.6512804 23.3487772,8.49775495 Z" id="Fill-4"></path>
            </g>
        </g>
    </g>
</svg>