<?xml version="1.0" encoding="UTF-8"?>
<svg width="58px" height="61px" viewBox="0 0 58 61" version="1.1" xmlns="http://www.w3.org/2000/svg" xmlns:xlink="http://www.w3.org/1999/xlink">
    <!-- Generator: Sketch 45 (43475) - http://www.bohemiancoding.com/sketch -->
    <title>Group 2</title>
    <desc>Created with Sketch.</desc>
    <defs></defs>
    <g id="Design" stroke="none" stroke-width="1" fill="none" fill-rule="evenodd">
        <g id="C00_NEDC_Research" transform="translate(-258.000000, -736.000000)" fill-rule="nonzero" fill="#68CDEA">
            <g id="Group-2" transform="translate(258.000000, 736.000000)">
                <ellipse id="Oval" cx="11.02" cy="6.10616162" rx="6.11468085" ry="6.10616162"></ellipse>
                <path d="M4.14638298,34.3510101 L4.14638298,57.3584848 C4.11380597,58.8960712 5.25746104,60.2062401 6.78723404,60.3838384 C7.60265568,60.4637483 8.41397161,60.1962181 9.02140136,59.6471251 C9.62883111,59.0980322 9.97593236,58.3183981 9.97723404,57.500202 L9.97723404,41.2273737 C9.96636763,40.6953028 10.3375168,40.2313647 10.8595745,40.1244444 C11.167393,40.0737273 11.4819661,40.1608314 11.7196761,40.3626034 C11.9573861,40.5643753 12.094151,40.8603741 12.093617,41.1719192 L12.093617,57.3584848 C12.0589896,58.8835342 13.1824117,60.1888226 14.6974468,60.3838384 C15.5170894,60.4659347 16.333115,60.1968184 16.9425913,59.6434142 C17.5520675,59.09001 17.8977296,58.3043145 17.893617,57.4817172 L17.893617,23.1676768 L21.7808511,26.5873737 C22.6572939,27.3592209 23.7724736,27.8072814 24.94,27.8566667 L33.6276596,28.220202 C35.0299341,28.3052762 36.2357646,27.2390581 36.3209574,25.8387374 C36.4061503,24.4384166 35.3384447,23.2342661 33.9361702,23.1491919 L25.5076596,22.5330303 L19.053617,15.6073737 C18.5668967,14.9322775 17.7944536,14.5204268 16.9619149,14.4921212 L5.05957447,14.4921212 C2.45948837,14.4921212 0.351702128,16.5969708 0.351702128,19.1934343 L0.351702128,29.7359596 C0.35025343,31.9819912 1.93993511,33.9153451 4.14638298,34.3510101 L4.14638298,34.3510101 Z" id="Shape"></path>
                <ellipse id="Oval" cx="32.4614894" cy="37.3948485" rx="5.57787234" ry="5.57010101"></ellipse>
                <path d="M57.6544681,43.0573737 L57.6544681,32.7428283 L45.3695745,32.7428283 C42.6434029,32.7428283 40.4334043,34.9497479 40.4334043,37.6721212 L40.4334043,38.189697 C40.4334043,40.9120703 42.6434029,43.1189899 45.3695745,43.1189899 L57.6544681,43.0573737 Z" id="Shape"></path>
                <path d="M24.1008511,51.1414141 L24.1008511,60.1558586 L57.6544681,60.1558586 L57.6544681,46.7235354 L28.5002128,46.7235354 C27.3291407,46.723517 26.2063892,47.1897558 25.3806357,48.0189849 C24.5548821,48.848214 24.0942812,49.971992 24.1008511,51.1414141 Z" id="Shape"></path>
                <path d="M41.9944681,1.92242424 L41.76,1.92242424 C40.9532241,1.91788676 40.2119884,2.36534069 39.8410638,3.08080808 L35.4170213,11.8487879 L27.0440426,11.8487879 C25.8513425,11.8487879 24.8844681,12.8143152 24.8844681,14.0053535 C24.8844681,15.1963919 25.8513425,16.1619192 27.0440426,16.1619192 L36.7374468,16.1619192 C37.5483031,16.1629146 38.290566,15.7076905 38.656383,14.9850505 L41.0812766,10.1851515 L43.586383,20.1423232 C43.8054677,21.0182149 44.5504742,21.6632493 45.4497851,21.7556761 C46.3490959,21.848103 47.210049,21.3681214 47.6031915,20.5551515 L51.5151064,12.4711111 L55.5319149,12.4711111 C56.7246149,12.4711111 57.6914894,11.5055838 57.6914894,10.3145455 C57.6914894,9.12350713 56.7246149,8.1579798 55.5319149,8.1579798 L50.1638298,8.1579798 C49.3360117,8.16264273 48.5846062,8.64210512 48.2325532,9.39030303 L46.3074468,13.3707071 L43.8085106,3.53060606 C43.5940016,2.67214014 42.8734939,2.03339689 41.9944681,1.92242424 Z" id="Shape"></path>
            </g>
        </g>
    </g>
</svg>