<?xml version="1.0" encoding="UTF-8"?>
<svg width="62px" height="63px" viewBox="0 0 62 63" version="1.1" xmlns="http://www.w3.org/2000/svg" xmlns:xlink="http://www.w3.org/1999/xlink">
    <!-- Generator: Sketch 45 (43475) - http://www.bohemiancoding.com/sketch -->
    <title>Shape</title>
    <desc>Created with Sketch.</desc>
    <defs></defs>
    <g id="Design" stroke="none" stroke-width="1" fill="none" fill-rule="evenodd">
        <g id="C00_NEDC_Research" transform="translate(-548.000000, -735.000000)" fill-rule="nonzero" fill="#68CDEA">
            <path d="M552.528068,741.088367 C552.528068,737.729372 555.251072,735.006369 558.610067,735.006369 C561.969062,735.006369 564.692065,737.729372 564.692065,741.088367 C564.692065,744.447362 561.969062,747.170366 558.610067,747.170366 C555.251072,747.170366 552.528068,744.447362 552.528068,741.088367 L552.528068,741.088367 Z M551.776575,770.479386 L551.776575,794.151416 C551.726589,795.21561 552.265874,796.221071 553.180062,796.768124 C554.09425,797.315177 555.235207,797.315177 556.149395,796.768124 C557.063583,796.221071 557.602868,795.21561 557.552882,794.151416 L557.552882,777.319246 C557.536721,776.782909 557.911455,776.313818 558.438115,776.211113 L558.616435,776.211113 C559.200302,776.211113 559.67362,776.68443 559.67362,777.268298 L559.67362,794.151416 C559.623634,795.21561 560.162919,796.221071 561.077107,796.768124 C561.991295,797.315177 563.132252,797.315177 564.04644,796.768124 C564.960628,796.221071 565.499913,795.21561 565.449927,794.151416 L565.449927,756.4685 L570.863224,760.926509 C571.850358,761.74082 573.27167,761.756731 574.276785,760.96472 L582.275728,754.659821 C583.393787,753.816156 583.715015,752.275353 583.027221,751.055202 C582.622189,750.39087 581.951992,749.931851 581.186185,749.794273 C580.420377,749.656696 579.632319,749.853739 579.021381,750.335552 L572.652796,755.347629 L566.284211,750.068072 C565.799238,749.659396 565.186155,749.433998 564.551956,749.431213 L552.687283,749.431213 C551.443035,749.431212 550.249841,749.925923 549.370623,750.806336 C548.491404,751.686749 547.998314,752.880614 548.000004,754.12486 L548.000004,765.881268 C547.999926,768.118941 549.581544,770.044621 551.776575,770.479386 Z M606.590985,735 L567.175813,735 C569.466551,738.195936 569.766887,742.408024 567.952781,745.896649 C568.344944,746.111783 568.715962,746.363393 569.060914,746.648142 L572.703745,749.654114 L576.263784,746.851936 C578.280776,745.255455 580.999745,744.865138 583.384391,745.829749 C585.769036,746.794359 587.451961,748.965283 587.791738,751.515098 C588.131515,754.064914 587.075797,756.600777 585.026957,758.156175 L577.028014,764.461074 C575.003105,766.058308 572.274621,766.440442 569.88883,765.460941 L569.88883,775.370459 L581.059328,775.370459 L581.059328,779.930366 L570.5639,790.419425 C569.515064,791.56092 569.553079,793.326459 570.650078,794.42175 C571.747077,795.51704 573.512674,795.552303 574.652532,794.501688 L581.059328,788.094892 L581.059328,794.151416 C581.009342,795.21561 581.548627,796.221071 582.462815,796.768124 C583.377003,797.315177 584.51796,797.315177 585.432148,796.768124 C586.346336,796.221071 586.885621,795.21561 586.835635,794.151416 L586.835635,788.094892 L593.216957,794.508057 C593.935228,795.289783 595.024132,795.615015 596.05347,795.355264 C597.082809,795.095512 597.887017,794.292557 598.148372,793.263625 C598.409728,792.234692 598.086193,791.145283 597.305588,790.425794 L586.848372,779.923998 L586.848372,775.370459 L602.578777,775.370459 C604.14748,775.370459 605.419165,774.098774 605.419165,772.530071 L605.419165,742.597722 L606.590985,742.597722 C608.530455,742.387313 610.000007,740.74971 610.000007,738.798861 C610.000007,736.848011 608.530455,735.210408 606.590985,735 Z" id="Shape"></path>
        </g>
    </g>
</svg>