<?xml version="1.0" encoding="UTF-8"?>
<svg width="71px" height="61px" viewBox="0 0 71 61" version="1.1" xmlns="http://www.w3.org/2000/svg" xmlns:xlink="http://www.w3.org/1999/xlink">
    <!-- Generator: Sketch 45 (43475) - http://www.bohemiancoding.com/sketch -->
    <title>Group 3</title>
    <desc>Created with Sketch.</desc>
    <defs></defs>
    <g id="Design" stroke="none" stroke-width="1" fill="none" fill-rule="evenodd">
        <g id="C00_NEDC_Research" transform="translate(-1128.000000, -730.000000)" fill-rule="nonzero" fill="#68CDEA">
            <g id="Group-3" transform="translate(1128.000000, 730.000000)">
                <path d="M17.4927536,5.12832393 C17.4927536,11.97089 7.20289855,11.97089 7.20289855,5.12832393 C7.20289855,-1.70944131 17.4927536,-1.70944131 17.4927536,5.12832393" id="Shape"></path>
                <path d="M41.1594203,7.2021233 C41.1594203,14.0430891 30.8695652,14.0430891 30.8695652,7.2021233 C30.8695652,0.356354379 41.1594203,0.356354379 41.1594203,7.2021233" id="Shape"></path>
                <path d="M65.8550725,23.6152305 C65.8550725,29.7682702 56.5942029,29.7682702 56.5942029,23.6152305 C56.5942029,17.456428 65.8550725,17.456428 65.8550725,23.6152305" id="Shape"></path>
                <path d="M7.46478271,12.4067797 C3.59473655,12.4067797 0.637859631,15.3554761 0.637859631,19.2148154 L0.637859631,32.8308868 L5.19059809,32.8308868 L5.19059809,60.0630297 L10.7723221,60.0630297 L10.7723221,39.6389225 L13.2670895,39.6389225 L13.2670895,60.0630297 L18.8488135,60.0630297 L18.8402804,32.8308868 L23.3930188,32.8308868 L23.3930188,19.2148154 C23.3930188,15.3597243 20.4318819,12.4067797 16.5660958,12.4067797 L7.46478271,12.4067797 Z" id="Shape"></path>
                <path d="M47.5153846,44.1160714 L42.9626462,20.2879464 C42.5060943,17.1094107 39.5491846,14.6160357 36.1357231,14.6160357 C32.7222615,14.6160357 29.9914923,17.1137679 29.3088,20.2879464 L24.7603215,44.1160714 L29.31306,44.1160714 L29.31306,60.0000357 L34.894784,60.0000357 L34.894784,44.1160714 L37.3852914,44.1160714 L37.3852914,60.0000357 L42.9670154,60.0000357 L42.9670154,44.1160714 L47.5153846,44.1160714 Z" id="Shape"></path>
                <path d="M63.5373538,30.5 L58.9846154,30.5 C55.1145692,30.5 52.1576923,33.4486964 52.1576923,37.3080357 L52.1576923,44.1160714 L56.7104308,44.1160714 L56.7104308,60.0000357 L65.8115385,60.0000357 L65.8115385,44.1160714 L70.3642769,44.1160714 L70.3642769,37.3080357 C70.3642769,33.4486964 67.40314,30.5 63.5373538,30.5 L63.5373538,30.5 Z" id="Shape"></path>
            </g>
        </g>
    </g>
</svg>