<?xml version="1.0" encoding="UTF-8"?>
<svg width="119px" height="119px" viewBox="0 0 119 119" version="1.1" xmlns="http://www.w3.org/2000/svg" xmlns:xlink="http://www.w3.org/1999/xlink">
    <!-- Generator: Sketch 45 (43475) - http://www.bohemiancoding.com/sketch -->
    <title>Group 4</title>
    <desc>Created with Sketch.</desc>
    <defs></defs>
    <g id="Design" stroke="none" stroke-width="1" fill="none" fill-rule="evenodd">
        <g id="C00_NEDC_Research" transform="translate(-1055.000000, -1057.000000)">
            <g id="Group-4" transform="translate(1055.000000, 1057.000000)">
                <g id="Group" fill="#EEF2EE">
                    <circle id="Oval" cx="59.2207031" cy="59.2207031" r="59.2207031"></circle>
                </g>
                <path d="M76.9291264,47.4255552 C76.9291264,34.7742741 65.3147788,24.4754496 51.076298,24.4754496 C36.8343608,24.4727467 25.2207031,34.7742741 25.2207031,47.4255552 C25.2207031,52.2645786 26.9489258,56.9660356 30.0597266,60.8351804 C29.5061561,61.942349 28.6771484,62.7713428 27.7104498,63.3923969 C26.6735162,64.083686 26.1901669,65.2583244 26.4655765,66.4329628 C26.7410137,67.6076011 27.6402148,68.436595 28.8850882,68.6445347 C29.714082,68.7822533 30.5430773,68.8524606 31.3748363,68.8524606 C33.8645829,68.8524606 36.1436247,68.3690975 38.2174919,67.3321777 C42.0898167,69.33581 46.5129607,70.3727435 51.0768511,70.3727435 C65.3160232,70.3754465 76.9296794,60.0739191 76.9296794,47.4254031 L76.9291264,47.4255552 Z M38.2169389,62.28827 L37.1097703,62.9795591 C35.9351319,63.6708482 34.6200236,64.1541975 33.1699757,64.3621372 C33.8612648,63.4629084 34.3446141,62.4259748 34.7604936,61.3215714 L35.2438567,60.0766981 L34.2771581,58.9695295 C31.2365923,55.650789 29.6460723,51.6404829 29.6460723,47.4256935 C29.6460723,37.193924 39.2536098,28.8984553 51.0760353,28.8984553 C62.8984609,28.8984553 72.5059963,37.193924 72.5059963,47.4256935 C72.5059963,57.6574629 62.8984609,65.9529316 51.0760353,65.9529316 C46.858066,65.9529316 42.8510781,64.915998 39.3241213,62.9123658 L38.2169389,62.28827 Z M55.2240324,55.0974812 L35.7974272,55.0974812 C35.7974272,51.9164455 37.5958848,49.2917592 39.9451615,48.5302351 C39.0459327,48.046872 38.4248786,47.0801181 38.4248786,46.0431845 C38.4248786,44.4526666 39.7372218,43.1403234 41.3277397,43.1403234 C42.9182575,43.1403234 44.2306007,44.4526666 44.2306007,46.0431845 C44.2306007,47.150353 43.6095189,48.0468167 42.7103178,48.600401 C43.6770164,48.8758382 44.5087754,49.4996298 45.2000645,50.3286236 C46.1667631,48.600401 47.6195762,47.3555276 49.2775639,46.8019433 C48.1029255,46.1808616 47.3414015,44.9360159 47.3414015,43.5534378 C47.3414015,41.4795706 48.9993892,39.8215829 51.0732564,39.8215829 C53.1471235,39.8215829 54.8051112,41.4795706 54.8051112,43.5534378 C54.8051112,44.9360159 54.0435872,46.1808892 52.8689488,46.8019433 C54.5269365,47.3555138 55.9797496,48.600401 56.9464482,50.3286236 C57.6377373,49.4996298 58.4667311,48.9460455 59.4361949,48.600401 C58.5369661,48.1170378 57.915912,47.1475879 57.915912,46.0431845 C57.915912,44.4526666 59.2282552,43.1403234 60.818773,43.1403234 C62.4092909,43.1403234 63.7216341,44.4526666 63.7216341,46.0431845 C63.7216341,47.150353 63.1005523,48.0468167 62.2013512,48.600401 C64.5506279,49.361925 66.3490855,51.9866113 66.3490855,55.1676471 L55.2234794,55.1676471 L55.2240324,55.0974812 Z M90.3422081,69.1313405 C90.3422081,73.6949544 88.5437504,77.8429652 85.5031846,81.1583876 C86.0567551,82.6786705 87.0937025,84.4068945 88.9596299,85.5815329 C89.4429931,85.8569701 89.3052745,86.6184665 88.751704,86.6887015 C86.8155416,86.9641387 83.4968011,87.034346 80.4562353,85.1684186 C77.0700249,87.104581 72.9896221,88.2089844 68.6338097,88.2089844 C58.8181963,88.2089844 50.5897826,82.5409657 47.8246264,74.7288463 C48.86156,74.7990536 49.8282586,74.8665649 50.8651922,74.8665649 C65.519829,74.8665649 77.8254656,65.604674 80.8657549,53.2990374 C86.6067032,56.7581788 90.3412541,62.5636934 90.3412541,69.1309395 L90.3422081,69.1313405 Z" id="Page-1" fill="#C8D1C8"></path>
            </g>
        </g>
    </g>
</svg>