<?xml version="1.0" encoding="UTF-8"?>
<svg width="14px" height="14px" viewBox="0 0 14 14" version="1.1" xmlns="http://www.w3.org/2000/svg" xmlns:xlink="http://www.w3.org/1999/xlink">
    <!-- Generator: Sketch 45 (43475) - http://www.bohemiancoding.com/sketch -->
    <title>Group</title>
    <desc>Created with Sketch.</desc>
    <defs></defs>
    <g id="Symbols" stroke="none" stroke-width="1" fill="none" fill-rule="evenodd">
        <g id="NEDC_events" transform="translate(-542.000000, -77.000000)" fill="#7B9E9E">
            <g id="Group-2">
                <g id="Group" transform="translate(542.000000, 77.000000)">
                    <path d="M6.86247059,2.32710314 C9.69335294,2.32710314 12.0095294,4.44593722 12.0095294,7.03562332 C12.0095294,9.62530942 9.69335294,11.7441435 6.86247059,11.7441435 C4.03158824,11.7441435 1.71541176,9.62530942 1.71541176,7.03562332 C1.71541176,4.44593722 4.03158824,2.32710314 6.86247059,2.32710314 L6.86247059,2.32710314 Z M6.86247059,0.757847534 C3.08823529,0.757847534 0,3.58295964 0,7.03562332 C0,10.488287 3.08823529,13.3133991 6.86247059,13.3133991 C10.6367059,13.3133991 13.7249412,10.488287 13.7249412,7.03562332 C13.7249412,3.58295964 10.6367059,0.757847534 6.86247059,0.757847534 Z" id="Fill-1"></path>
                    <path d="M9.47426471,9.72620063 C9.34558824,9.72620063 9.21691176,9.68720843 9.13085294,9.64747982 L6,7.84279821 L6,5.92040359 C6,5.60625112 6.29997059,5.33183857 6.64338235,5.33183857 C6.98679412,5.33183857 7.28676471,5.60625112 7.28676471,5.92040359 L7.28676471,7.17626009 L9.81767647,8.62780269 C10.1176471,8.78450789 10.2037059,9.17738117 10.0324118,9.45179372 C9.90293029,9.60849892 9.689,9.72620628 9.47428529,9.72620628 L9.47426471,9.72620063 Z" id="Fill-2"></path>
                </g>
            </g>
        </g>
    </g>
</svg>