<?xml version="1.0" encoding="UTF-8"?>
<svg width="14px" height="14px" viewBox="0 0 14 14" version="1.1" xmlns="http://www.w3.org/2000/svg" xmlns:xlink="http://www.w3.org/1999/xlink">
    <!-- Generator: Sketch 45.2 (43514) - http://www.bohemiancoding.com/sketch -->
    <title>Group</title>
    <desc>Created with Sketch.</desc>
    <defs></defs>
    <g id="Design" stroke="none" stroke-width="1" fill="none" fill-rule="evenodd">
        <g id="H01_NEDC_Member_Events" transform="translate(-728.000000, -589.000000)" fill="#7B9E9E">
            <g id="Group" transform="translate(728.000000, 589.000000)">
                <path d="M7.5,2 C10.525,2 13,4.475 13,7.5 C13,10.525 10.525,13 7.5,13 C4.475,13 2,10.525 2,7.5 C2,4.475 4.475,2 7.5,2 L7.5,2 Z M7,0 C3.15012601,0 0,3.15012601 0,7 C0,10.849874 3.15012601,14 7,14 C10.849874,14 14,10.849874 14,7 C14,3.15012601 10.849874,0 7,0 Z" id="Fill-1"></path>
                <path d="M9.37340452,9.99999357 C9.24846361,9.99999357 9.12352271,9.95562746 9.03996223,9.91042345 L6,7.8570204 L6,5.66968112 C6,5.31223213 6.29126225,5 6.62470454,5 C6.95814684,5 7.24940908,5.31223213 7.24940908,5.66968112 L7.24940908,7.09861992 L9.70684682,8.7502143 C9.99810906,8.92851663 10.0816695,9.37553574 9.91534821,9.68776787 C9.78962567,9.8660702 9.58190591,10 9.37342451,10 L9.37340452,9.99999357 Z" id="Fill-2"></path>
            </g>
        </g>
    </g>
</svg>