<?xml version="1.0" encoding="utf-8"?>
<!-- Generator: Adobe Illustrator 16.0.0, SVG Export Plug-In . SVG Version: 6.00 Build 0)  -->
<!DOCTYPE svg PUBLIC "-//W3C//DTD SVG 1.1//EN" "http://www.w3.org/Graphics/SVG/1.1/DTD/svg11.dtd">
<svg version="1.1" id="Layer_1" xmlns="http://www.w3.org/2000/svg" xmlns:xlink="http://www.w3.org/1999/xlink" x="0px" y="0px"
	 width="14px" height="14px" viewBox="0 0 14 14" enable-background="new 0 0 14 14" xml:space="preserve">
<title>Group</title>
<desc>Created with Sketch.</desc>
<path fill="#C1272D" d="M11.166,0.248c0.229,0,0.457,0,0.686,0c0.056,0.02,0.111,0.042,0.168,0.058
	c0.819,0.227,1.371,0.734,1.633,1.548c0.031,0.098,0.065,0.195,0.098,0.292c0,0.229,0,0.457,0,0.686
	c-0.145,0.704-0.586,1.209-1.086,1.691c-0.771,0.742-1.515,1.511-2.275,2.264c-0.066,0.066-0.172,0.092-0.276,0.145
	c0.911,0.91,1.72,1.738,2.553,2.541c0.499,0.482,0.941,0.986,1.085,1.691c0,0.229,0,0.457,0,0.686
	c-0.015,0.021-0.036,0.041-0.041,0.064c-0.199,0.904-0.739,1.508-1.629,1.75c-0.884,0.242-1.638-0.029-2.275-0.676
	c-0.825-0.838-1.663-1.664-2.492-2.498c-0.098-0.1-0.172-0.221-0.265-0.342c-0.127,0.119-0.198,0.184-0.265,0.25
	c-0.888,0.887-1.772,1.779-2.666,2.66c-0.624,0.617-1.373,0.84-2.223,0.6c-0.857-0.244-1.382-0.826-1.595-1.691
	c-0.01-0.041-0.033-0.078-0.049-0.117c0-0.229,0-0.457,0-0.686c0.14-0.695,0.573-1.197,1.067-1.674
	c0.776-0.748,1.527-1.523,2.294-2.282c0.066-0.065,0.172-0.091,0.276-0.145c-0.912-0.91-1.721-1.737-2.552-2.541
	c-0.5-0.482-0.94-0.988-1.085-1.691c0-0.229,0-0.457,0-0.686c0.022-0.064,0.046-0.127,0.065-0.192
	c0.232-0.807,0.738-1.35,1.541-1.609C1.954,0.313,2.051,0.28,2.148,0.248c0.229,0,0.457,0,0.686,0
	c0.704,0.144,1.209,0.586,1.691,1.085c0.743,0.771,1.512,1.515,2.264,2.276c0.065,0.066,0.092,0.171,0.144,0.273
	C7.854,2.96,8.695,2.14,9.511,1.295C9.982,0.807,10.481,0.387,11.166,0.248z"/>
</svg>
