<?xml version="1.0" encoding="UTF-8"?>
<svg width="13px" height="16px" viewBox="0 0 13 16" version="1.1" xmlns="http://www.w3.org/2000/svg" xmlns:xlink="http://www.w3.org/1999/xlink">
    <!-- Generator: Sketch 45 (43475) - http://www.bohemiancoding.com/sketch -->
    <title>arrows-24px-glyph-4_logout</title>
    <desc>Created with Sketch.</desc>
    <defs></defs>
    <g id="Design" stroke="none" stroke-width="1" fill="none" fill-rule="evenodd">
        <g id="B02_NEDC_EatingDisorders_PageD" transform="translate(-823.000000, -2562.000000)" fill-rule="nonzero" fill="#A6A6A6">
            <g id="arrows-24px-glyph-4_logout" transform="translate(823.000000, 2562.000000)">
                <path d="M9.625,14.6666667 L1.375,14.6666667 L1.375,1.33333333 L9.625,1.33333333 L9.625,2.66666667 L11,2.66666667 L11,0.666666667 C11,0.298666667 10.692,0 10.3125,0 L0.6875,0 C0.308,0 0,0.298666667 0,0.666666667 L0,15.3333333 C0,15.7013333 0.308,16 0.6875,16 L10.3125,16 C10.692,16 11,15.7013333 11,15.3333333 L11,13.3333333 L9.625,13.3333333 L9.625,14.6666667 Z" id="Shape"></path>
                <polygon id="Shape" points="13 8 8 4 8 7.33333333 3 7.33333333 3 8.66666667 8 8.66666667 8 12"></polygon>
            </g>
        </g>
    </g>
</svg>