<?xml version="1.0" encoding="UTF-8"?>
<svg width="19px" height="19px" viewBox="0 0 19 19" version="1.1" xmlns="http://www.w3.org/2000/svg" xmlns:xlink="http://www.w3.org/1999/xlink">
    <!-- Generator: Sketch 45 (43475) - http://www.bohemiancoding.com/sketch -->
    <title>Facebook__x28_alt_x29_</title>
    <desc>Created with Sketch.</desc>
    <defs></defs>
    <g id="Design" stroke="none" stroke-width="1" fill="none" fill-rule="evenodd">
        <g id="C05_NEDC_Research_Details" transform="translate(-1003.000000, -476.000000)" fill-rule="nonzero" fill="#7B9E9E">
            <path d="M1022,479.166878 C1022,477.5029 1020.49773,476 1018.83333,476 L1006.16667,476 C1004.50227,476 1003,477.5029 1003,479.166878 L1003,491.833122 C1003,493.4971 1004.50227,495 1006.16688,495 L1012.5,495 L1012.5,487.822222 L1010.17778,487.822222 L1010.17778,484.655556 L1012.5,484.655556 L1012.5,483.421822 C1012.5,481.294033 1014.09769,479.377778 1016.0625,479.377778 L1018.62222,479.377778 L1018.62222,482.544444 L1016.0625,482.544444 C1015.78236,482.544444 1015.45556,482.884544 1015.45556,483.393956 L1015.45556,484.655556 L1018.62222,484.655556 L1018.62222,487.822222 L1015.45556,487.822222 L1015.45556,495 L1018.83333,495 C1020.49773,495 1022,493.4971 1022,491.833122 L1022,479.166878 Z" id="Facebook__x28_alt_x29_"></path>
        </g>
    </g>
</svg>