<?xml version="1.0" encoding="UTF-8"?>
<svg width="19px" height="19px" viewBox="0 0 19 19" version="1.1" xmlns="http://www.w3.org/2000/svg" xmlns:xlink="http://www.w3.org/1999/xlink">
    <!-- Generator: Sketch 45 (43475) - http://www.bohemiancoding.com/sketch -->
    <title>Facebook__x28_alt_x29_</title>
    <desc>Created with Sketch.</desc>
    <defs></defs>
    <g id="Design" stroke="none" stroke-width="1" fill="none" fill-rule="evenodd">
        <g id="B02_NEDC_EatingDisorders_PageD" transform="translate(-241.000000, -2742.000000)" fill-rule="nonzero" fill="#19495D">
            <g id="Group" transform="translate(241.000000, 2742.000000)">
                <path d="M19,3.16687778 C19,1.5029 17.4977333,0 15.8333333,0 L3.16666667,0 C1.50226667,0 0,1.5029 0,3.16687778 L0,15.8331222 C0,17.4971 1.50226667,19 3.16687778,19 L9.5,19 L9.5,11.8222222 L7.17777778,11.8222222 L7.17777778,8.65555556 L9.5,8.65555556 L9.5,7.42182222 C9.5,5.29403333 11.0976889,3.37777778 13.0625,3.37777778 L15.6222222,3.37777778 L15.6222222,6.54444444 L13.0625,6.54444444 C12.7823556,6.54444444 12.4555556,6.88454444 12.4555556,7.39395556 L12.4555556,8.65555556 L15.6222222,8.65555556 L15.6222222,11.8222222 L12.4555556,11.8222222 L12.4555556,19 L15.8333333,19 C17.4977333,19 19,17.4971 19,15.8331222 L19,3.16687778 Z" id="Facebook__x28_alt_x29_"></path>
            </g>
        </g>
    </g>
</svg>