<?xml version="1.0" encoding="UTF-8"?>
<svg width="48px" height="48px" viewBox="0 0 48 48" version="1.1" xmlns="http://www.w3.org/2000/svg" xmlns:xlink="http://www.w3.org/1999/xlink">
    <!-- Generator: Sketch 45 (43475) - http://www.bohemiancoding.com/sketch -->
    <title>Group 3</title>
    <desc>Created with Sketch.</desc>
    <defs></defs>
    <g id="Design" stroke="none" stroke-width="1" fill="none" fill-rule="evenodd">
        <g id="B00_NEDC_EatingDisordersA" transform="translate(-472.000000, -1372.000000)">
            <g id="Group-3" transform="translate(473.000000, 1373.000000)">
                <circle id="Oval-2-Copy-2" stroke="#D1DDDD" cx="23" cy="23" r="23"></circle>
                <path d="M24.8823634,15.9207317 L24.8823634,15.152439 L25.573622,14.4611805 C24.651261,14.1790634 23.6789098,14 22.654622,14 C17.3275366,14 13,18.3275366 13,23.654622 C13,28.9817073 17.3275366,33.3092439 22.654622,33.3092439 C27.9817073,33.3092439 32.3092439,28.9817073 32.3092439,23.654622 C32.3092439,22.5282024 32.1041661,21.4517732 31.7710293,20.4534024 L31.0027366,21.2216951 L29.824278,21.2216951 C30.0803756,21.9899878 30.2344439,22.8092951 30.2344439,23.654622 C30.2344439,27.8292683 26.8280902,31.235622 22.6534439,31.235622 C18.4787976,31.235622 15.0724439,27.8292683 15.0724439,23.654622 C15.0724439,19.4799756 18.4787976,16.073622 22.6534439,16.073622 C23.4217366,16.073622 24.1900293,16.2016707 24.8812878,16.4067537 L24.8823634,15.9207317 Z" id="Shape" fill="#95C75B" fill-rule="nonzero"></path>
                <path d="M20.1762244,21.0731605 C20.7904488,20.4589361 21.5587415,20.0997849 22.4040683,19.9977556 L24.2477659,18.154058 C23.8126049,18.0520185 23.3514244,18 22.8902439,18 C19.638061,18 17,20.638061 17,23.8902439 C17,27.1424268 19.638061,29.7804878 22.8902439,29.7804878 C26.1424268,29.7804878 28.7804878,27.1424268 28.7804878,23.8902439 C28.7804878,23.3270341 28.7034588,22.7638244 28.5503995,22.2256098 L26.706702,24.0693073 C26.6046624,26.0670732 24.9400385,27.6807951 22.916202,27.6807951 C20.8164068,27.6807951 19.1008605,25.9651463 19.1008605,23.8654537 L19.1008605,23.8144339 C19.0748512,22.8150644 19.4339922,21.8156693 20.1762654,21.0734217 L20.1762244,21.0731605 Z" id="Shape" fill="#95C75B" fill-rule="nonzero"></path>
                <path d="M30.6731634,15.4053293 L30.6731634,12 L27.0877976,15.5853659 L27.0877976,17.5060976 L23.2463341,21.347561 C23.1442946,21.3215517 23.0162459,21.3215517 22.8882073,21.3215517 C22.4020317,21.3215517 21.9408512,21.5006202 21.5567049,21.8597663 C20.8144317,22.6020395 20.8144317,23.780498 21.5567049,24.4978273 C21.9148317,24.8559541 22.4020317,25.036042 22.8882073,25.036042 C23.3743829,25.036042 23.8355634,24.8569734 24.2197098,24.4978273 C24.6808902,24.0366468 24.8339341,23.4224224 24.7319049,22.8331932 L28.5733683,18.9917298 L30.4941,18.9917298 L34.0794659,15.4063639 L30.6731634,15.4053293 Z" id="Shape" fill="#95C75B" fill-rule="nonzero"></path>
            </g>
        </g>
    </g>
</svg>