<?xml version="1.0" encoding="UTF-8"?>
<svg width="47px" height="47px" viewBox="0 0 47 47" version="1.1" xmlns="http://www.w3.org/2000/svg" xmlns:xlink="http://www.w3.org/1999/xlink">
    <!-- Generator: Sketch 45 (43475) - http://www.bohemiancoding.com/sketch -->
    <title>Group 4</title>
    <desc>Created with Sketch.</desc>
    <defs></defs>
    <g id="Symbols" stroke="none" stroke-width="1" fill="none" fill-rule="evenodd">
        <g id="Footer" transform="translate(-1129.000000, -211.000000)">
            <g id="Group-4" transform="translate(1129.000000, 211.000000)">
                <circle id="Oval-2-Copy-2" fill="#16343C" cx="23.5" cy="23.5" r="23.5"></circle>
                <g id="social-24px-glyph-1_logo-instagram" transform="translate(14.000000, 15.000000)" fill-rule="nonzero" fill="#FFFFFF">
                    <path d="M9.47027027,1.71158333 C11.9988324,1.71158333 12.2987243,1.72108333 13.2970486,1.767 C14.3750811,1.81608333 15.3749838,2.033 16.1444432,2.804875 C16.9139027,3.57675 17.1301405,4.57979167 17.1790703,5.66120833 C17.2248432,6.66266667 17.2343135,6.9635 17.2343135,9.5 C17.2343135,12.0365 17.2248432,12.3373333 17.1790703,13.3387917 C17.1301405,14.4202083 16.9139027,15.42325 16.1444432,16.195125 C15.3749838,16.967 14.3750811,17.1839167 13.2970486,17.233 C12.2987243,17.2789167 11.9988324,17.2884167 9.47027027,17.2884167 C6.94170811,17.2884167 6.64181622,17.2789167 5.64349189,17.233 C4.56545946,17.1839167 3.56555676,16.967 2.7960973,16.195125 C2.02663784,15.42325 1.8104,14.4202083 1.76147027,13.3387917 C1.7156973,12.3373333 1.70622703,12.0365 1.70622703,9.5 C1.70622703,6.9635 1.7156973,6.66266667 1.76147027,5.66120833 C1.8104,4.57979167 2.02663784,3.57675 2.7960973,2.804875 C3.56555676,2.033 4.56545946,1.81608333 5.64349189,1.767 C6.64181622,1.72108333 6.94170811,1.71158333 9.47027027,1.71158333 L9.47027027,1.71158333 Z M9.47027027,0 C6.8983027,0 6.57552432,0.0110833333 5.56536216,0.057 C4.02644324,0.127458333 2.67456216,0.505875 1.58942703,1.59441667 C0.504291892,2.68295833 0.127059459,4.03908333 0.0568216216,5.58283333 C0.0110486486,6.59616667 0,6.91995833 0,9.5 C0,12.0800417 0.0110486486,12.4038333 0.0568216216,13.4171667 C0.127059459,14.9609167 0.504291892,16.3170417 1.58942703,17.4055833 C2.67456216,18.494125 4.02644324,18.8725417 5.56536216,18.943 C6.57552432,18.9889167 6.8983027,19 9.47027027,19 C12.0422378,19 12.3650162,18.9889167 13.3751784,18.943 C14.9140973,18.8725417 16.2659784,18.494125 17.3511135,17.4055833 C18.4362486,16.3170417 18.8134811,14.9609167 18.8837189,13.4171667 C18.9294919,12.4038333 18.9405405,12.0800417 18.9405405,9.5 C18.9405405,6.91995833 18.9294919,6.59616667 18.8837189,5.58283333 C18.8134811,4.03908333 18.4362486,2.68295833 17.3511135,1.59441667 C16.2659784,0.505875 14.9140973,0.127458333 13.3751784,0.057 C12.3650162,0.0110833333 12.0422378,0 9.47027027,0 L9.47027027,0 Z" id="Shape"></path>
                    <path d="M9.47027027,4.62175 C6.78465946,4.62175 4.60728649,6.80595833 4.60728649,9.5 C4.60728649,12.1940417 6.78465946,14.37825 9.47027027,14.37825 C12.1558811,14.37825 14.3332541,12.1940417 14.3332541,9.5 C14.3332541,6.80595833 12.1558811,4.62175 9.47027027,4.62175 Z M9.47027027,12.6666667 C7.72695135,12.6666667 6.31351351,11.2487917 6.31351351,9.5 C6.31351351,7.75120833 7.72695135,6.33333333 9.47027027,6.33333333 C11.2135892,6.33333333 12.627027,7.75120833 12.627027,9.5 C12.627027,11.2487917 11.2135892,12.6666667 9.47027027,12.6666667 Z" id="Shape"></path>
                    <ellipse id="Oval" cx="14.5258162" cy="4.42858333" rx="1.13643243" ry="1.14"></ellipse>
                </g>
            </g>
        </g>
    </g>
</svg>