<?xml version="1.0" encoding="UTF-8"?>
<svg width="47px" height="47px" viewBox="0 0 47 47" version="1.1" xmlns="http://www.w3.org/2000/svg" xmlns:xlink="http://www.w3.org/1999/xlink">
    <!-- Generator: Sketch 45 (43475) - http://www.bohemiancoding.com/sketch -->
    <title>Group 2</title>
    <desc>Created with Sketch.</desc>
    <defs></defs>
    <g id="Symbols" stroke="none" stroke-width="1" fill="none" fill-rule="evenodd">
        <g id="Footer" transform="translate(-1184.000000, -211.000000)">
            <g id="Group-2" transform="translate(1184.000000, 211.000000)">
                <circle id="Oval-2-Copy-3" fill="#16343C" cx="23.5" cy="23.5" r="23.5"></circle>
                <path d="M32.1513514,14 L14.7891892,14 C14.3156757,14 14,14.3166667 14,14.7916667 L14,32.2083333 C14,32.6833333 14.3156757,33 14.7891892,33 L32.1513514,33 C32.6248649,33 32.9405405,32.6833333 32.9405405,32.2083333 L32.9405405,14.7916667 C32.9405405,14.3166667 32.6248649,14 32.1513514,14 Z M19.6032432,30.2291667 L16.8410811,30.2291667 L16.8410811,21.125 L19.6821622,21.125 L19.6821622,30.2291667 L19.6032432,30.2291667 Z M18.1827027,19.8583333 C17.3145946,19.8583333 16.5254054,19.1458333 16.5254054,18.1958333 C16.5254054,17.325 17.2356757,16.5333333 18.1827027,16.5333333 C19.0508108,16.5333333 19.84,17.2458333 19.84,18.1958333 C19.84,19.1458333 19.1297297,19.8583333 18.1827027,19.8583333 Z M30.1783784,30.2291667 L27.3372973,30.2291667 L27.3372973,25.7958333 C27.3372973,24.7666667 27.3372973,23.4208333 25.9167568,23.4208333 C24.4172973,23.4208333 24.2594595,24.5291667 24.2594595,25.7166667 L24.2594595,30.2291667 L21.4183784,30.2291667 L21.4183784,21.125 L24.1016216,21.125 L24.1016216,22.3916667 L24.1016216,22.3916667 C24.4962162,21.6791667 25.3643243,20.9666667 26.7848649,20.9666667 C29.6259459,20.9666667 30.1783784,22.8666667 30.1783784,25.3208333 L30.1783784,30.2291667 Z" id="Shape" fill="#FFFFFF" fill-rule="nonzero"></path>
            </g>
        </g>
    </g>
</svg>