<?xml version="1.0" encoding="UTF-8"?>
<svg width="19px" height="15px" viewBox="0 0 19 15" version="1.1" xmlns="http://www.w3.org/2000/svg" xmlns:xlink="http://www.w3.org/1999/xlink">
    <!-- Generator: Sketch 45 (43475) - http://www.bohemiancoding.com/sketch -->
    <title>Group</title>
    <desc>Created with Sketch.</desc>
    <defs></defs>
    <g id="Design" stroke="none" stroke-width="1" fill="none" fill-rule="evenodd">
        <g id="C05_NEDC_Research_Details" transform="translate(-1069.000000, -479.000000)" fill-rule="nonzero" fill="#7B9E9E">
            <g id="Group" transform="translate(1069.000000, 479.000000)">
                <path d="M1.82362507,4.84396074 C2.06397251,5.02249796 2.78846853,5.5527539 3.99715026,6.43445491 C5.20586913,7.31615592 6.13183067,7.99504302 6.77507203,8.47115531 C6.84574279,8.52334432 6.99588567,8.63679188 7.22557493,8.81165437 C7.45530133,8.98663414 7.64618295,9.12803312 7.79807125,9.2358904 C7.95007095,9.34370859 8.13382236,9.46466198 8.34951117,9.59855513 C8.5651257,9.73233099 8.76837377,9.83295609 8.95921826,9.89957037 C9.15009988,9.96673195 9.32679535,10 9.48934182,10 L9.5,10 L9.51069531,10 C9.67324178,10 9.85001153,9.96669286 10.0408932,9.89957037 C10.2316634,9.83295609 10.4350971,9.73221371 10.650526,9.59855513 C10.8660662,9.46450561 11.0498176,9.34366949 11.2018173,9.2358904 C11.353817,9.12803312 11.5445501,8.98663414 11.7743508,8.81165437 C12.0040029,8.63663551 12.1543315,8.52334432 12.2250022,8.47115531 C12.8751881,7.99504302 14.5293593,6.78586088 17.186996,4.84372618 C17.7029705,4.46440788 18.134051,4.00670834 18.4803489,3.4709403 C18.8269068,2.93540682 19,2.37360292 19,1.78584134 C19,1.29467829 18.8320316,0.874234268 18.4962433,0.524548379 C18.1604922,0.174784305 17.7628346,0 17.3035303,0 L1.69635828,0 C1.15212284,0 0.73329737,0.193431613 0.43995614,0.580294839 C0.146652047,0.96723625 0,1.45089347 0,2.0312274 C0,2.49999023 0.194446725,3.00796322 0.583154492,3.55483364 C0.971825122,4.10174315 1.38545148,4.53149128 1.82362507,4.84396074 Z" id="Shape"></path>
                <path d="M17.9395693,5.91191459 C15.6213648,7.46313865 13.861098,8.66869575 12.6596231,9.5283289 C12.25673,9.82171442 11.9298923,10.0507394 11.6788872,10.2148532 C11.427882,10.3790771 11.0940627,10.546789 10.6769463,10.7179152 C10.2599785,10.8892985 9.87138286,10.9747331 9.51082527,10.9747331 L9.50001857,10.9747331 L9.48936041,10.9747331 C9.12887709,10.9747331 8.74005868,10.8892985 8.32309085,10.7179152 C7.90612302,10.546789 7.57208083,10.3790771 7.32114998,10.2148532 C7.0702934,10.0507394 6.74334427,9.82171442 6.34048829,9.5283289 C5.38619346,8.83655442 3.62971462,7.63092388 1.07097749,5.91191459 C0.667972957,5.64654223 0.311017597,5.34236265 0,5 L0,13.3226249 C0,13.7841261 0.166036976,14.1787702 0.498296611,14.5072181 C0.830481972,14.8357761 1.22992141,15 1.69646637,15 L17.303645,15 C17.7700786,15 18.1694809,14.8357761 18.5017034,14.5072181 C18.8340373,14.1786601 19,13.7841628 19,13.3226249 L19,5 C18.6960012,5.33527675 18.3426852,5.63945633 17.9395693,5.91191459 Z" id="Shape"></path>
            </g>
        </g>
    </g>
</svg>