<?xml version="1.0" encoding="UTF-8"?>
<svg width="21px" height="16px" viewBox="0 0 21 16" version="1.1" xmlns="http://www.w3.org/2000/svg" xmlns:xlink="http://www.w3.org/1999/xlink">
    <!-- Generator: Sketch 45 (43475) - http://www.bohemiancoding.com/sketch -->
    <title>Group</title>
    <desc>Created with Sketch.</desc>
    <defs></defs>
    <g id="Design" stroke="none" stroke-width="1" fill="none" fill-rule="evenodd">
        <g id="E02_NEDC_GetHelp" transform="translate(-556.000000, -886.000000)" fill-rule="nonzero" fill="#E2E9E9">
            <g id="Group" transform="translate(556.000000, 886.000000)">
                <path d="M2.0155856,5.80294511 C2.28123278,5.98148233 3.08199153,6.51173827 4.41790292,7.39343928 C5.75385536,8.27514029 6.77728653,8.9540274 7.4882375,9.43013969 C7.56634729,9.48232869 7.73229468,9.59577626 7.98616177,9.77063875 C8.24006989,9.94561852 8.45104432,10.0870175 8.61892085,10.1948748 C8.78692052,10.302693 8.99001419,10.4236464 9.22840708,10.5575395 C9.46671788,10.6913154 9.69136049,10.7919405 9.90229386,10.8585547 C10.1132683,10.9257163 10.3085633,10.9589844 10.4882199,10.9589844 L10.5,10.9589844 L10.5118211,10.9589844 C10.6914778,10.9589844 10.8868549,10.9256772 11.0978293,10.8585547 C11.3086806,10.7919405 11.5335284,10.6911981 11.771634,10.5575395 C12.0098627,10.42349 12.2129563,10.3026539 12.380956,10.1948748 C12.5489557,10.0870175 12.7597659,9.94561852 13.0137561,9.77063875 C13.2675822,9.59561988 13.4337348,9.48232869 13.5118446,9.43013969 C14.2304711,8.9540274 16.0587656,7.74484526 18.9961534,5.80271055 C19.5664411,5.42339225 20.0428985,4.96569271 20.4256488,4.42992468 C20.8086864,3.8943912 21,3.33258729 21,2.74482571 C21,2.25366266 20.8143507,1.83321864 20.4432163,1.48353275 C20.072123,1.13376868 19.6326066,0.958984375 19.1249546,0.958984375 L1.87492231,0.958984375 C1.27339893,0.958984375 0.810486566,1.15241599 0.486267312,1.53927921 C0.162089104,1.92622063 0,2.40987784 0,2.99021177 C0,3.4589746 0.214914801,3.9669476 0.644539175,4.51381802 C1.0741225,5.06072753 1.53128848,5.49047565 2.0155856,5.80294511 Z" id="Shape"></path>
                <path d="M19.827945,6.87089896 C17.265719,8.42212302 15.320161,9.62768013 13.992215,10.4873133 C13.5469121,10.7806988 13.1856704,11.0097238 12.9082437,11.1738376 C12.630817,11.3380615 12.2618587,11.5057733 11.8008354,11.6768996 C11.3399762,11.8482828 10.9104758,11.9337175 10.5119648,11.9337175 L10.5000205,11.9337175 L10.4882405,11.9337175 C10.0898115,11.9337175 9.66006485,11.8482828 9.19920567,11.6768996 C8.73834649,11.5057733 8.36914197,11.3380615 8.09179734,11.1738376 C7.81453481,11.0097238 7.45316999,10.7806988 7.0079081,10.4873133 C5.95316119,9.79553879 4.01178984,8.58990826 1.18371196,6.87089896 C0.7382859,6.6055266 0.343756291,6.30134703 0,5.95898438 L0,14.2816093 C0,14.7431105 0.183514553,15.1377546 0.550748885,15.4662024 C0.917901127,15.7947604 1.35938682,15.9589844 1.87504178,15.9589844 L19.1250814,15.9589844 C19.6406132,15.9589844 20.0820578,15.7947604 20.4492511,15.4662024 C20.8165675,15.1376444 21,14.7431472 21,14.2816093 L21,5.95898438 C20.6640013,6.29426113 20.2734942,6.59844071 19.827945,6.87089896 Z" id="Shape"></path>
            </g>
        </g>
    </g>
</svg>