<?xml version="1.0" encoding="UTF-8"?>
<svg width="100px" height="100px" viewBox="0 0 100 100" version="1.1" xmlns="http://www.w3.org/2000/svg" xmlns:xlink="http://www.w3.org/1999/xlink">
    <!-- Generator: Sketch 45 (43475) - http://www.bohemiancoding.com/sketch -->
    <title>Group 2</title>
    <desc>Created with Sketch.</desc>
    <defs></defs>
    <g id="Design" stroke="none" stroke-width="1" fill="none" fill-rule="evenodd">
        <g id="A00_NEDC_Home_1" transform="translate(-1097.000000, -217.000000)">
            <g id="Group-2" transform="translate(1097.000000, 217.000000)">
                <circle id="Oval" fill="#EEF2EE" cx="49.7661219" cy="49.7661219" r="49.5903406"></circle>
                <path d="M86.1033288,44.8902564 L70.8761605,29.6661094 C70.6578289,29.4477778 70.3598341,29.3238607 70.049996,29.3238607 C69.7401956,29.3238607 69.4422008,29.4477778 69.2238314,29.6661094 L63.0396826,35.8502582 C62.821351,36.0685898 62.6974339,36.3665846 62.6974339,36.6764228 C62.6974339,36.9862231 62.821351,37.2842179 63.0396826,37.5025873 L63.7832005,38.2461051 C63.2727731,38.5765558 62.6797595,38.7535868 62.0601739,38.7535868 C61.2133892,38.7535868 60.4138118,38.4231361 59.8148463,37.8241706 C58.7733412,36.7826655 57.3896025,36.2102871 55.9172653,36.2102871 C54.444928,36.2102871 53.0612649,36.782673 52.0196842,37.8241706 L51.2318898,38.611965 L49.9956643,37.3757395 C48.9541592,36.3342344 47.5704205,35.7618561 46.0980832,35.7618561 C44.625746,35.7618561 43.2420828,36.334242 42.2005022,37.3757395 C41.6015593,37.9746824 40.8019593,38.3051557 39.9551746,38.3051557 C39.3355815,38.3051557 38.742515,38.1281248 38.232148,37.7947283 L38.9756659,37.0512105 C39.432987,36.5938894 39.432987,35.853355 38.9756659,35.398957 L32.7856256,29.2177539 C32.567294,28.9994223 32.2692992,28.8755052 31.9594611,28.8755052 C31.6496607,28.8755052 31.3516659,28.9994223 31.1332966,29.2177539 L15.9061275,44.4419009 C15.4488064,44.899222 15.4488064,45.6397564 15.9061275,46.0941544 L18.762128,48.9501549 C19.8715359,50.0595628 21.3467441,50.6702357 22.9134204,50.6702357 C24.0847642,50.6702357 25.2029339,50.327987 26.1559915,49.6936123 L33.1485549,56.6861757 L32.3254116,57.509319 C30.7380398,59.0966908 30.7380398,61.6812307 32.3254116,63.2686026 C33.1013476,64.0445386 34.1488197,64.4635123 35.2404778,64.4605666 L35.2404778,64.4959683 C35.2404778,65.5846806 35.665343,66.6055655 36.4324418,67.3756101 C37.2113235,68.1544918 38.2587956,68.5734655 39.3475079,68.5675741 C39.3386556,69.6208621 39.7369639,70.6801171 40.5365262,71.4796945 C41.3154079,72.2585762 42.3539673,72.6804957 43.4515923,72.6716585 C43.44274,73.7249465 43.8410483,74.7842015 44.6406106,75.5837789 C45.4106551,76.3538234 46.4315401,76.7757429 47.5202524,76.7757429 C48.6089647,76.7757429 49.6298497,76.3508777 50.3998942,75.5837789 L51.2230375,74.7606356 L52.4946873,76.0322855 C53.2647318,76.80233 54.2856168,77.2242495 55.3743291,77.2242495 C56.4630414,77.2242495 57.4839264,76.7993843 58.2539709,76.0322855 C59.0564941,75.2297623 59.4518264,74.1705829 59.4429892,73.1172193 C59.4547872,73.1172193 59.4665928,73.1201726 59.4813441,73.1201726 C60.5700565,73.1201726 61.5909414,72.6953074 62.360986,71.9282086 C63.1310305,71.1581641 63.55295,70.1372791 63.55295,69.0485668 C63.55295,69.0367612 63.5499967,69.0249632 63.5499967,69.0131576 C63.5618023,69.0131576 63.5736003,69.0161109 63.5854059,69.0161109 C64.6741182,69.0161109 65.6950032,68.5912457 66.4650477,67.8241469 C67.2675708,67.0216237 67.6629032,65.9624443 67.654066,64.9090807 C67.665864,64.9090807 67.6776696,64.912034 67.6924209,64.912034 C68.7811332,64.912034 69.8020182,64.4871688 70.5720627,63.72007 C72.1594346,62.1326981 72.1594346,59.5481582 70.5720627,57.9607864 L69.3004129,56.6891365 L75.8415996,50.1479499 C76.7945816,50.7822944 77.9128268,51.1245733 79.0871164,51.1245733 C80.6567383,51.1245733 82.1290001,50.5138325 83.238408,49.4044925 L86.0944085,46.548492 C86.3127401,46.3301604 86.4366572,46.0321656 86.4366572,45.7223275 C86.4425562,45.4066281 86.3215924,45.1115866 86.1032532,44.8902715 L86.1033288,44.8902564 Z M68.9259349,62.0678014 C68.5984374,62.3952988 68.1617818,62.575283 67.6985465,62.575283 C67.2353264,62.575283 66.7986632,62.3953064 66.4711582,62.0678014 L63.5472549,59.1438981 L61.5143977,57.1080952 C60.838745,56.4324424 60.838745,55.3318943 61.5143977,54.6533185 C61.8418951,54.3258211 62.2785508,54.1458444 62.741786,54.1458444 C63.2050062,54.1458444 63.6416694,54.3258211 63.9691743,54.6533185 L68.9288806,59.6130248 C69.6045333,60.2886775 69.6045333,61.3892256 68.9259273,62.0678014 L68.9259349,62.0678014 Z M64.8218504,66.1748315 C64.494353,66.502329 64.0576974,66.6823132 63.5944621,66.6823132 C63.131242,66.6823132 62.6945788,66.5023365 62.3670738,66.1748315 L57.4073676,61.2151253 C56.7317149,60.5394726 56.7317149,59.4389245 57.4073676,58.7632944 C57.734865,58.435797 58.1715207,58.2558128 58.6347559,58.2558128 C59.097976,58.2558128 59.5346392,58.4357894 59.8621442,58.7632944 L64.8218504,63.7230006 C65.4975032,64.3957001 65.4975032,65.4962557 64.8218504,66.1748315 Z M61.2223171,69.0515276 C61.2223171,69.5147478 61.0423404,69.951411 60.7148354,70.2789159 C60.387338,70.6064134 59.9506823,70.7863976 59.4874471,70.7863976 C59.024227,70.7863976 58.5875638,70.6064209 58.2600588,70.2789159 L56.988409,69.0043204 L53.3003525,65.316264 L53.2973993,65.3133107 C52.9699018,64.9858133 52.7899176,64.5491576 52.7899176,64.0888681 C52.7899176,63.625648 52.9698943,63.1889848 53.2973993,62.8614798 C53.6248967,62.5339824 54.0615523,62.3539981 54.5247876,62.3539981 C54.9880228,62.3539981 55.4246709,62.5339748 55.7521759,62.8614798 L59.4402323,66.5495362 L60.7118821,67.8241318 L60.7148354,67.827085 C61.0423328,68.1545825 61.2223171,68.5912381 61.2223171,69.0515276 Z M56.6077902,74.3859461 C56.2802928,74.7134435 55.8436371,74.8934277 55.3804019,74.8934277 C54.9171817,74.8934277 54.4805185,74.713451 54.1530135,74.3859461 L49.1933073,69.4262398 C48.5176546,68.7505871 48.5176546,67.650039 49.1933073,66.9714632 C49.5208047,66.6439658 49.9574604,66.4639816 50.4206956,66.4639816 C50.8839157,66.4639816 51.320579,66.6439582 51.6480839,66.9714632 L56.6077902,71.9311694 C57.2834429,72.6097755 57.2834429,73.710316 56.6077902,74.3859461 Z M65.6187087,53.0014427 C64.8486642,52.2313981 63.8277792,51.8094787 62.7390669,51.8094787 C61.6503546,51.8094787 60.6294696,52.2343439 59.8594251,53.0014427 C59.0569019,53.8039658 58.6615696,54.8631453 58.6704068,55.9165088 C57.5433395,55.9135555 56.5224546,56.3384207 55.75241,57.1055195 C54.9498869,57.9080427 54.5545546,58.9672221 54.5633918,60.0205857 C53.4363245,60.0176399 52.4154396,60.4425051 51.645395,61.2096039 C50.8753505,61.9796485 50.453431,63.0005334 50.453431,64.0892458 C49.3322628,64.1217017 48.3113778,64.5465669 47.5413333,65.3136657 C45.9539614,66.9010376 45.9539614,69.4855775 47.5413333,71.0729493 L49.5771362,73.1087522 L48.7539929,73.9318955 C48.4264955,74.2593929 47.9898398,74.4393771 47.5266046,74.4393771 C47.0633845,74.4393771 46.6267213,74.2594005 46.2992163,73.9318955 C45.6235636,73.2562428 45.6235636,72.1556946 46.2992163,71.4771189 C46.5264002,71.2499349 46.641465,70.9489869 46.641465,70.6509543 C46.641465,70.3529218 46.5264002,70.0520115 46.2992163,69.8247898 C45.8418952,69.3674687 45.1013608,69.3674687 44.6469628,69.8247898 C44.3194654,70.1522872 43.8828097,70.3322715 43.4195745,70.3322715 C42.9563543,70.3322715 42.5196911,70.1522948 42.1921861,69.8247898 C41.8646812,69.4972848 41.6847045,69.0606367 41.6847045,68.5974015 C41.6847045,68.1341663 41.8646812,67.6975182 42.1921861,67.3700132 C42.4193701,67.1428293 42.5344349,66.8418812 42.5344349,66.5438487 C42.5344349,66.2458161 42.4193701,65.9449058 42.1921861,65.7176841 C41.734865,65.260363 40.9943307,65.260363 40.5399326,65.7176841 C40.2124352,66.0451816 39.7757796,66.2251658 39.3125443,66.2251658 C38.8493242,66.2251658 38.412661,66.0451891 38.085156,65.7176841 C37.4095033,65.0420314 37.4095033,63.9414833 38.085156,63.2629075 C38.3123399,63.0357236 38.4274047,62.7347755 38.4274047,62.436743 C38.4274047,62.1387105 38.3123399,61.8378002 38.085156,61.6105785 C37.6278349,61.1532574 36.8873005,61.1532574 36.4329025,61.6105785 C36.1054051,61.9380759 35.6687494,62.1180601 35.2055142,62.1180601 C34.7422941,62.1180601 34.3056308,61.9380835 33.9781259,61.6105785 C33.3024732,60.9349258 33.3024732,59.8343776 33.9781259,59.1587476 L35.6303794,57.5064941 L44.0211836,49.1156899 C44.4755514,48.7881925 45.0272643,48.6052625 45.596697,48.6023092 C46.3166037,48.6023092 46.9922941,48.8825994 47.4997154,49.3901037 L51.1199444,53.0103327 C52.1643952,54.0547836 53.5511552,54.6271619 55.0263626,54.6271619 C56.4868414,54.6271619 57.8676344,54.060675 58.9061938,53.0338986 L61.4701135,50.5023819 C61.6913984,50.2840503 61.8182688,49.9860555 61.8182688,49.6732716 C61.8182688,49.3634713 61.6972975,49.0625308 61.4760201,48.8441614 L52.8812806,40.2645282 L53.6690751,39.4767337 C54.2680179,38.8777909 55.067618,38.5473175 55.9144026,38.5473175 C56.7611873,38.5473175 57.5607647,38.8777682 58.1597302,39.4767337 C59.2012353,40.5182388 60.584974,41.0906172 62.0573112,41.0906172 C63.3053197,41.0906172 64.488522,40.67755 65.4562327,39.9192733 L74.1129081,48.5759487 L67.6514073,55.0374495 L65.6187087,53.0014427 Z M42.0271723,47.758493 L34.8015184,55.0342999 L27.8945323,48.1273137 L36.5512076,39.4706383 C37.5159726,40.2289 38.7021207,40.6419822 39.9501291,40.6419822 C41.4223909,40.6419822 42.8061296,40.0695963 43.8477102,39.0280988 C44.446653,38.4291559 45.2462531,38.0986826 46.0930377,38.0986826 C46.9398223,38.0986826 47.7393997,38.4291333 48.3383652,39.0280988 L51.2268443,41.9165778 L58.9862044,49.6789592 L57.2601565,51.3843114 C56.6582604,51.9773552 55.8645593,52.3048904 55.020796,52.3048904 C54.1681199,52.3048904 53.3685425,51.9744397 52.7666312,51.3725284 L49.1464022,47.7522994 C48.4736952,47.0796 47.6416619,46.625217 46.7329413,46.4157679 C46.3611824,46.3302057 45.9776254,46.2800452 45.5852388,46.2800452 C45.4554151,46.2800452 45.325599,46.2888975 45.1957829,46.3006956 C44.2044308,46.3803587 43.2514487,46.7580167 42.4724914,47.3717335 C42.3190717,47.4867983 42.1685976,47.616622 42.0269759,47.7582437 L42.0271723,47.758493 Z" id="Page-1" fill="#C8D1C8"></path>
            </g>
        </g>
    </g>
</svg>