<?xml version="1.0" encoding="UTF-8"?>
<svg width="164px" height="168px" viewBox="0 0 164 168" version="1.1" xmlns="http://www.w3.org/2000/svg" xmlns:xlink="http://www.w3.org/1999/xlink">
    <!-- Generator: Sketch 45 (43475) - http://www.bohemiancoding.com/sketch -->
    <title>np_research_815904_000000</title>
    <desc>Created with Sketch.</desc>
    <defs></defs>
    <g id="Design" stroke="none" stroke-width="1" fill="none" fill-rule="evenodd" opacity="0.603777985">
        <g id="C00_NEDC_Research" transform="translate(-972.000000, -168.000000)" fill-rule="nonzero" fill="#92D8ED">
            <g id="np_research_815904_000000" transform="translate(972.463912, 167.795276)">
                <path d="M89.5562917,60.4271782 C89.3764835,61.078759 88.9436108,61.637269 88.3509275,61.9763613 C87.7582272,62.3087984 87.0589922,62.395231 86.3997525,62.2157106 L68.3132379,57.2823447 L68.3132379,57.2756963 C67.653947,57.102831 67.0878931,56.6773061 66.7482574,56.0922093 C66.4086217,55.5004573 66.3087358,54.8023411 66.488544,54.1441561 L71.4298159,36.08658 C71.6096241,35.428344 72.0424798,34.8764892 72.6351801,34.5373969 C73.2278804,34.2049598 73.9337813,34.1185271 74.5863551,34.2980476 C85.9340277,37.4030179 92.6336587,49.0850391 89.5567861,60.4286829 L89.5562917,60.4271782 Z M62.379637,42.1959878 C62.4795297,41.8502573 62.4195931,41.477906 62.2331276,41.1720727 C62.0400047,40.8728776 61.7269984,40.6601152 61.3740479,40.5936311 C53.0896094,38.878255 44.5721208,42.169401 39.5982867,49.0043868 C34.6236002,55.8327004 34.1242562,64.9416573 38.3196661,72.2754945 C42.515076,79.6157996 50.6196553,83.8111351 59.0435488,83.0133609 C67.4677832,82.2088465 74.6333436,76.5572966 77.3636248,68.5587895 C77.4968144,68.2196972 77.4768355,67.8340695 77.3036898,67.5082706 C77.1305476,67.1758335 76.8242071,66.9431224 76.4645908,66.8566898 L58.5639024,62.0429815 C58.164342,61.9366002 57.8247063,61.6706472 57.6182517,61.3182615 C57.4118141,60.9592205 57.3585382,60.5336956 57.4717439,60.1347745 L62.379637,42.1959878 Z M104.333736,53.8580944 L125.403699,58.5388687 C126.808852,58.9378069 128.320488,58.744976 129.579162,58.0003074 C130.837802,57.2556387 131.730143,56.0255312 132.043149,54.6027461 C132.362805,53.1732546 132.076446,51.6839854 131.257326,50.4737925 C130.438208,49.2703569 129.152887,48.4525491 127.707875,48.219872 L106.637913,43.5390977 C103.867568,43.1002794 101.237019,44.8821566 100.624475,47.6147756 C100.011794,50.3474967 101.643382,53.0800476 104.333838,53.8580774 L104.333736,53.8580944 Z M96.0160534,66.8299668 L96.0160534,66.8233184 C95.383409,69.6756971 97.1814564,72.5079911 100.038423,73.1396403 L121.041898,77.8204146 C123.812242,78.2658882 126.442791,76.4773558 127.055336,73.7447368 C127.661351,71.0120157 126.036428,68.2794647 123.345972,67.5080731 L102.287943,62.8272988 C99.4509398,62.2222534 96.6539999,64.017441 96.0146896,66.843233 L96.0160534,66.8299668 Z M151.150174,26.1531871 L145.456391,24.8965609 L142.692695,12.6826336 C141.793671,8.7199752 139.349699,5.27577637 135.899981,3.10832255 C132.450433,0.947506929 128.288267,0.236029236 124.319088,1.14035483 L81.8313774,10.7745798 L39.2106908,1.32656454 C35.2283843,0.435617452 31.0527504,1.15369929 27.6098513,3.3411698 C24.1603034,5.52870839 21.7295604,8.99265157 20.8505514,12.9753948 L18.1402167,25.1627693 L12.4464339,26.4592928 L12.4464339,26.4526444 C8.47742506,27.3502296 5.02105786,29.7836536 2.85013056,33.2212142 C0.679203263,36.6652428 -0.0334146184,40.8207491 0.872189732,44.7835777 L7.39843976,73.5337445 L0.985390276,102.295826 C0.106347137,106.265123 0.838882518,110.420629 3.02317055,113.851551 C5.21421481,117.282304 8.67706036,119.702519 12.652718,120.580122 L18.3465008,121.836748 L21.1101966,134.004038 L21.1035375,134.010686 C22.0025613,137.973345 24.4465337,141.417543 27.8896033,143.584997 C31.3326728,145.752451 35.4946681,146.463929 39.4638474,145.566412 L87.8775378,134.622421 L87.8841969,134.622421 C86.3658434,129.536036 85.7864067,124.216975 86.1793694,118.931104 L18.5983038,103.951264 L37.5048404,18.9126591 L145.202201,42.7420555 L137.117568,79.064864 C144.229938,80.2417128 150.929399,83.1672648 156.622499,87.5753627 C157.188553,87.9743009 157.941081,87.9942324 158.527133,87.6152565 C159.106501,87.2429222 159.406176,86.5514442 159.279661,85.8733277 L156.396115,73.2073226 L162.789218,44.4452412 C163.681593,40.4759446 162.955707,36.3204383 160.771385,32.8895158 C158.58716,29.4521254 155.124144,27.0319097 151.148486,26.1476689 L151.150174,26.1531871 Z M34.0967198,92.6814577 C33.4640754,95.5338364 35.2621228,98.3594922 38.1190897,98.9977796 L87.9648352,110.081343 L87.9714943,110.074694 C88.9837356,106.624027 90.4221838,103.306124 92.2468606,100.207792 L40.3365691,88.5989612 C37.486268,88.0205197 34.7026257,89.842294 34.0965596,92.6812773 L34.0967198,92.6814577 Z M79.5815166,82.9808508 C78.9422063,85.8066768 80.7069755,88.6190562 83.5372278,89.2772582 L97.941656,92.4753334 C98.2812918,92.1162925 98.6075957,91.7439582 98.9472315,91.3849343 C101.744171,88.5659167 104.907479,86.1390629 108.357027,84.1709249 C107.90419,83.8983166 107.411376,83.6988646 106.891932,83.5725348 L85.8219694,78.911675 C82.9650195,78.2800428 80.1348354,80.0752134 79.4955251,82.9276092 L79.5815166,82.9808508 Z M152.703272,99.4898567 C158.730178,105.527034 162.119716,113.705113 162.119716,122.228207 C162.119716,130.751301 158.730007,138.930061 152.703272,144.966558 C147.682043,149.979752 141.149144,153.197742 134.110423,154.115344 C127.071361,155.039533 119.925747,153.623335 113.778651,150.072857 L98.6749023,165.152439 C95.4517555,168.390344 90.2107749,168.40379 86.97416,165.179035 C83.7310667,161.961045 83.7244179,156.72845 86.9475221,153.497013 L102.037973,138.430707 C96.6304306,129.341835 96.0444814,118.184231 100.472992,108.57758 C104.894974,98.9767161 113.765362,92.161679 124.193962,90.3395812 C134.629381,88.524462 145.284382,91.9485931 152.703791,99.4883673 L152.703272,99.4898567 Z M147.488886,122.294589 C147.462248,113.950385 141.535288,106.789482 133.330806,105.179976 C125.132972,103.577602 116.935139,107.972441 113.752567,115.691804 C110.575962,123.411166 113.293065,132.293914 120.252222,136.915285 C127.211327,141.542954 136.468029,140.612076 142.375768,134.707832 C145.665573,131.410014 147.503548,126.94864 147.49025,122.294419 L147.488886,122.294589 Z" id="Shape"></path>
            </g>
        </g>
    </g>
</svg>