<?xml version="1.0" encoding="UTF-8"?>
<svg width="175px" height="180px" viewBox="0 0 175 180" version="1.1" xmlns="http://www.w3.org/2000/svg" xmlns:xlink="http://www.w3.org/1999/xlink">
    <!-- Generator: Sketch 45 (43475) - http://www.bohemiancoding.com/sketch -->
    <title>Shape</title>
    <desc>Created with Sketch.</desc>
    <defs></defs>
    <g id="Design" stroke="none" stroke-width="1" fill="none" fill-rule="evenodd">
        <g id="A00_NEDC_Home_1" transform="translate(-774.000000, -841.000000)" fill-rule="nonzero" fill="#92D8ED">
            <g id="np_research_815904_000000" transform="translate(774.000000, 841.000000)">
                <path d="M95.7596354,64.61282 C95.5673724,65.3095342 95.1045156,65.9067308 94.4707786,66.2693112 C93.8370234,66.6247754 93.0893542,66.717195 92.3844505,66.5252396 L73.0451276,61.2501516 L73.0451276,61.2430427 C72.3401693,61.0582035 71.7349063,60.6032035 71.3717448,59.9775785 C71.0085833,59.3448373 70.9017786,58.5983643 71.0940417,57.8945885 L76.3775833,38.5862085 C76.5698464,37.8823781 77.0326849,37.2922977 77.6664401,36.9297173 C78.3001953,36.5742531 79.0549922,36.4818335 79.7527682,36.6737889 C91.8864661,39.9938329 99.0501641,52.4850389 95.7601641,64.6144289 L95.7596354,64.61282 Z M66.7005208,45.1188 C66.8073328,44.7491216 66.7432445,44.3509784 66.543863,44.0239608 C66.337363,43.7040412 66.0026755,43.4765412 65.6252771,43.405452 C56.7669958,41.571256 47.6595219,45.0903716 42.3411625,52.3988 C37.0218917,59.700094 36.4879594,69.440006 40.973975,77.28184 C45.4599906,85.13059 54.1259542,89.616526 63.13335,88.763492 C72.1411104,87.9032508 79.8030115,81.860232 82.7224125,73.307688 C82.8648279,72.9451076 82.8434651,72.5327684 82.658326,72.1844022 C82.4731906,71.828938 82.1456307,71.5801076 81.7611047,71.487688 L62.6204797,66.340546 C62.1932427,66.226796 61.8300813,65.942421 61.609326,65.5656264 C61.3885891,65.1817156 61.3316229,64.7267156 61.4526701,64.3001622 L66.7005208,45.1188 Z M111.560677,57.588712 L134.090104,62.593712 C135.592589,63.0202836 137.208932,62.8140958 138.554792,62.0178458 C139.900615,61.2215958 140.854766,59.9062818 141.189453,58.3849438 C141.53125,56.856435 141.225057,55.2640078 140.349198,53.9699878 C139.473341,52.6831932 138.09899,51.8087378 136.553885,51.5599438 L114.024458,46.5549438 C111.062219,46.0857296 108.249458,47.991033 107.594484,50.9129338 C106.939365,53.8349438 108.683969,56.7567718 111.560786,57.5886938 L111.560677,57.588712 Z M102.666849,71.459114 L102.666849,71.4520051 C101.990383,74.5019611 103.912977,77.5304411 106.967839,78.2058431 L129.426172,83.2108431 C132.388411,83.6871735 135.201172,81.7747539 135.856146,78.8528531 C136.504138,75.9308431 134.766661,73.0090151 131.889844,72.1841911 L109.373177,67.1791911 C106.339661,66.5322357 103.348984,68.4517715 102.665391,71.4732991 L102.666849,71.459114 Z M161.619974,27.964754 L155.531797,26.6210844 L152.576667,13.5611284 C151.61537,9.3239864 149.002109,5.6412164 145.313438,3.3236284 C141.624948,1.0131384 137.174479,0.2523784 132.930365,1.2193444 L87.4996354,11.5209084 L41.9267188,1.4184524 C37.6685677,0.4657916 33.2036979,1.2336132 29.5223177,3.5726044 C25.8338281,5.9116684 23.2347135,9.6155504 22.2948177,13.8741684 L19.3967448,26.9057324 L13.3085677,28.2920628 L13.3085677,28.2849539 C9.06463542,29.2447127 5.36885417,31.8466939 3.04755208,35.5223659 C0.72625,39.2049539 -0.0357291667,43.6483019 0.932604167,47.8856259 L7.91091146,78.6272459 L1.05364583,109.381606 C0.113713542,113.625846 0.896989844,118.069194 3.23257813,121.737768 C5.57539063,125.40616 9.27809896,127.994018 13.5291406,128.93241 L19.6173177,130.276079 L22.5724479,143.286167 L22.5653276,143.293276 C23.5266245,147.530418 26.1398849,151.213188 29.8214474,153.530776 C33.5030099,155.848364 37.9532964,156.609124 42.1974109,155.649438 L93.9645984,143.947384 L93.9717188,143.947384 C92.3481927,138.508678 91.7286198,132.821178 92.1488021,127.169168 L19.8865625,111.151712 L40.1027083,20.2226924 L155.26,45.7026924 L146.615365,84.5414924 C154.220391,85.7998586 161.383906,88.9280564 167.471354,93.6414924 C168.076617,94.068064 168.881271,94.0893762 169.507917,93.6841496 C170.127417,93.2860246 170.447849,92.5466496 170.31257,91.8215616 L167.229289,78.2782136 L174.065227,47.5238536 C175.019414,43.2796136 174.243247,38.8362656 171.907622,35.1676916 C169.572102,31.4922016 165.869211,28.9043436 161.618169,27.9588536 L161.619974,27.964754 Z M36.4585156,99.101274 C35.7820495,102.15123 37.7046432,105.172612 40.7595052,105.855112 L94.0579427,117.706406 L94.065063,117.699297 C95.1474198,114.009611 96.6855057,110.461885 98.6365734,107.148939 L43.1305839,94.7359931 C40.0828495,94.1174843 37.1063911,96.0654485 36.4583443,99.1010811 L36.4585156,99.101274 Z M85.0939323,88.72873 C84.4103385,91.750294 86.297349,94.75748 89.3236458,95.461274 L104.725833,98.880872 C105.088995,98.4969612 105.437901,98.0988362 105.801063,97.7149436 C108.79174,94.7006596 112.174161,92.1057036 115.862651,90.0012376 C115.378448,89.7097464 114.851497,89.4964788 114.296073,89.3613984 L91.7666458,84.3776924 C88.7118021,83.7023086 85.6855781,85.6218262 85.0019844,88.6718004 L85.0939323,88.72873 Z M163.280651,106.381274 C169.725026,112.836632 173.349349,121.581186 173.349349,130.694654 C173.349349,139.808122 169.724844,148.553404 163.280651,155.008034 C157.911615,160.36848 150.926198,163.809372 143.399922,164.790534 C135.873281,165.778739 128.232708,164.264445 121.659818,160.468034 L105.50987,176.592142 C102.063464,180.054328 96.4594531,180.068706 92.9986458,176.62058 C89.5309115,173.179688 89.5238021,167.584644 92.9701628,164.129374 L109.105892,148.019462 C103.323783,138.301026 102.697246,126.370562 107.432509,116.098482 C112.16079,105.83259 121.645608,98.5454915 132.796572,96.5971815 C143.954827,94.6563335 155.347874,98.3176457 163.281207,106.379682 L163.280651,106.381274 Z M157.705078,130.765634 C157.676595,121.843448 151.339089,114.186526 142.566302,112.465534 C133.800625,110.752168 125.034948,115.451426 121.631927,123.70549 C118.235286,131.959554 121.140596,141.457588 128.581797,146.39907 C136.022943,151.347286 145.920833,150.351928 152.237786,144.038712 C155.755469,140.512462 157.720755,135.74206 157.706536,130.765452 L157.705078,130.765634 Z" id="Shape"></path>
            </g>
        </g>
    </g>
</svg>