<?xml version="1.0" encoding="UTF-8"?>
<svg width="19px" height="19px" viewBox="0 0 19 19" version="1.1" xmlns="http://www.w3.org/2000/svg" xmlns:xlink="http://www.w3.org/1999/xlink">
    <!-- Generator: Sketch 45 (43475) - http://www.bohemiancoding.com/sketch -->
    <title>Group 2</title>
    <desc>Created with Sketch.</desc>
    <defs></defs>
    <g id="Design" stroke="none" stroke-width="1" fill="none" fill-rule="evenodd">
        <g id="C05_NEDC_Research_Details" transform="translate(-1106.000000, -476.000000)" fill-rule="nonzero" fill="#7B9E9E">
            <g id="Group-2" transform="translate(1106.000000, 476.000000)">
                <rect id="Rectangle-path" x="5" y="0" width="10" height="4"></rect>
                <path d="M14.25,6 L4.75,6 C2.1375,6 0,8.12727273 0,10.7272727 L0,14.2727273 C0,14.9818182 0.475,15.4545455 1.1875,15.4545455 L3.5625,15.4545455 L3.5625,17.8181818 C3.5625,18.5272727 4.0375,19 4.75,19 L14.25,19 C14.9625,19 15.4375,18.5272727 15.4375,17.8181818 L15.4375,15.4545455 L17.8125,15.4545455 C18.525,15.4545455 19,14.9818182 19,14.2727273 L19,10.7272727 C19,8.12727273 16.8625,6 14.25,6 Z M13,17 L6,17 L6,12 L13,12 L13,17 Z" id="Shape"></path>
            </g>
        </g>
    </g>
</svg>