<?xml version="1.0" encoding="UTF-8"?>
<svg width="88px" height="73px" viewBox="0 0 88 73" version="1.1" xmlns="http://www.w3.org/2000/svg" xmlns:xlink="http://www.w3.org/1999/xlink">
    <!-- Generator: Sketch 45 (43475) - http://www.bohemiancoding.com/sketch -->
    <title>Shape</title>
    <desc>Created with Sketch.</desc>
    <defs></defs>
    <g id="Design" stroke="none" stroke-width="1" fill="none" fill-rule="evenodd">
        <g id="C02_NEDC_Research_Search" transform="translate(-1198.000000, -199.000000)" fill-rule="nonzero" fill="#6D98A7">
            <g id="Bitmap-Copy" transform="translate(0.000000, 192.000000)">
                <path d="M1246.24587,39.5588514 C1246.14892,39.9101773 1245.91552,40.2113204 1245.59595,40.3941556 C1245.27637,40.5734024 1244.89935,40.620006 1244.5439,40.5232103 L1234.79183,37.8631883 L1234.79183,37.8596036 C1234.43635,37.7663964 1234.13114,37.5369575 1233.94801,37.2214791 C1233.76488,36.9024123 1233.71102,36.525995 1233.80797,36.1711082 L1236.47226,26.434642 C1236.56921,26.0797277 1236.8026,25.7821731 1237.12218,25.5993378 C1237.44176,25.420091 1237.82237,25.3734874 1238.17423,25.4702831 C1244.29278,27.1444523 1247.90516,33.4432824 1246.24614,39.5596627 L1246.24587,39.5588514 Z M1231.59249,29.7287742 C1231.64635,29.5423598 1231.61403,29.3415916 1231.51349,29.1766893 C1231.40936,29.0153663 1231.24059,28.9006469 1231.05029,28.8647994 C1226.5834,27.9398855 1221.99085,29.7144389 1219.30901,33.3997955 C1216.62671,37.0815545 1216.35747,41.9930138 1218.61959,45.9473462 C1220.88172,49.905166 1225.25162,52.1672493 1229.7937,51.7370974 C1234.33597,51.3033111 1238.19957,48.2560514 1239.67171,43.9433357 C1239.74352,43.7605004 1239.73275,43.5525738 1239.63939,43.3769063 C1239.54603,43.1976595 1239.38086,43.072184 1239.18696,43.0255803 L1229.53508,40.4300765 C1229.31964,40.3727168 1229.13652,40.2293176 1229.0252,40.0393147 C1228.91389,39.8457234 1228.88516,39.6162845 1228.9462,39.4011902 L1231.59249,29.7287742 Z M1254.21372,36.0168665 L1265.57444,38.5406937 C1266.33208,38.7557972 1267.14714,38.6518247 1267.82581,38.2503067 C1268.50445,37.8487888 1268.9856,37.185527 1269.15437,36.4183753 C1269.32672,35.6476077 1269.17232,34.8446085 1268.73066,34.1920845 C1268.289,33.5432039 1267.59596,33.10225 1266.81683,32.9767929 L1255.45611,30.4529658 C1253.96237,30.2163593 1252.54401,31.1771298 1252.21373,32.6505309 C1251.88338,34.123987 1252.76311,35.5973514 1254.21378,36.0168574 L1254.21372,36.0168665 Z M1249.72891,43.0111716 L1249.72891,43.0075868 C1249.3878,44.5455612 1250.35729,46.072706 1251.89773,46.413285 L1263.2226,48.9371122 C1264.71634,49.1773071 1266.13471,48.2129482 1266.46499,46.7395471 C1266.79174,45.2660909 1265.9156,43.7927265 1264.46493,43.3767998 L1253.11065,40.8529727 C1251.58097,40.5267382 1250.07289,41.4946856 1249.72818,43.0183246 L1249.72891,43.0111716 Z M1279.45668,21.078655 L1276.38665,20.4010946 L1274.8965,13.815466 C1274.41175,11.6788399 1273.09398,9.82176199 1271.23393,8.65309237 C1269.37397,7.48800199 1267.12977,7.10438027 1264.98963,7.59198367 L1242.08068,12.7866623 L1219.10002,7.6923861 C1216.9528,7.21199626 1214.70134,7.59917887 1212.84497,8.7786413 C1210.985,9.95814043 1209.67437,11.8258643 1209.20042,13.9733199 L1207.73903,20.5446316 L1204.669,21.2437041 L1204.669,21.2401194 C1202.52895,21.7240885 1200.66531,23.0361665 1199.49477,24.8896652 C1198.32423,26.7466513 1197.93999,28.9872591 1198.42828,31.123977 L1201.94717,46.6257821 L1198.48932,62.1340115 C1198.01535,64.2742169 1198.41032,66.5148247 1199.58807,68.3647441 C1200.76946,70.2145717 1202.63659,71.519528 1204.78023,71.9927226 L1207.85026,72.670283 L1209.34042,79.2307651 L1209.33683,79.2343499 C1209.82157,81.370976 1211.13934,83.2280539 1212.99581,84.3967235 C1214.85227,85.5653932 1217.09638,85.9490149 1219.23652,85.4650825 L1245.34071,79.5641911 L1245.3443,79.5641911 C1244.52561,76.8216629 1244.21319,73.9536776 1244.42507,71.1035884 L1207.98603,63.0266074 L1218.18025,17.174634 L1276.2496,30.0232085 L1271.89044,49.6081069 C1275.72536,50.2426521 1279.33764,51.8200808 1282.40731,54.1968835 C1282.71252,54.411987 1283.11827,54.4227339 1283.43427,54.2183939 C1283.74666,54.0176349 1283.90824,53.6447968 1283.84002,53.2791631 L1282.28524,46.4497787 L1285.73234,30.9415493 C1286.2135,28.8013439 1285.82211,26.5607361 1284.64435,24.7108167 C1283.46663,22.8574098 1281.59941,21.5524535 1279.45577,21.0756797 L1279.45668,21.078655 Z M1216.34262,56.9500393 C1216.00151,58.4880137 1216.971,60.0115793 1218.51144,60.3557375 L1245.38778,66.3318848 L1245.39137,66.3283001 C1245.93716,64.4677347 1246.71275,62.6787543 1247.6966,61.0081643 L1219.70709,54.7487977 C1218.17023,54.4369077 1216.66932,55.4191904 1216.34253,56.9499421 L1216.34262,56.9500393 Z M1240.86757,51.7195682 C1240.52286,53.2432256 1241.47441,54.7596327 1243.00045,55.1145287 L1250.76718,56.8388992 C1250.95031,56.6453079 1251.12625,56.4445489 1251.30937,56.2509668 C1252.81746,54.7309804 1254.52308,53.4224449 1256.38304,52.3612444 C1256.13888,52.2142567 1255.87316,52.1067141 1255.59308,52.0385983 L1244.23236,49.525509 C1242.69192,49.1849391 1241.16592,50.1528773 1240.82121,51.6908609 L1240.86757,51.7195682 Z M1280.2941,60.6210606 C1283.54375,63.8762469 1285.37135,68.2857859 1285.37135,72.8813539 C1285.37135,77.4769219 1283.54365,81.8868279 1280.2941,85.1416472 C1277.5867,87.8447119 1274.06423,89.5798201 1270.26902,90.074582 C1266.47363,90.5728956 1262.62078,89.8092956 1259.30633,87.8949131 L1251.16254,96.0256746 C1249.42465,97.7715205 1246.59876,97.7787708 1244.85361,96.0400145 C1243.10497,94.3049063 1243.10138,91.4835429 1244.83925,89.7411844 L1252.97587,81.6175815 C1250.06018,76.7169516 1249.74424,70.700882 1252.13205,65.521071 C1254.51634,60.3443803 1259.29916,56.6697798 1264.92216,55.6873227 C1270.54884,54.7086285 1276.29391,56.554886 1280.29438,60.6202576 L1280.2941,60.6210606 Z M1277.48255,72.9171463 C1277.46819,68.4180345 1274.27243,64.5569461 1269.84866,63.6891166 C1265.42847,62.8251326 1261.00828,65.194786 1259.29226,69.3569899 C1257.57947,73.5191938 1259.04451,78.3086835 1262.79681,80.800481 C1266.5491,83.2956741 1271.54022,82.7937537 1274.72561,79.6102441 C1276.49944,77.8320932 1277.49046,75.4265647 1277.48329,72.9170546 L1277.48255,72.9171463 Z" id="Shape"></path>
            </g>
        </g>
    </g>
</svg>