<?xml version="1.0" encoding="UTF-8"?>
<svg width="15px" height="15px" viewBox="0 0 15 15" version="1.1" xmlns="http://www.w3.org/2000/svg" xmlns:xlink="http://www.w3.org/1999/xlink">
    <!-- Generator: Sketch 45 (43475) - http://www.bohemiancoding.com/sketch -->
    <title>Shape</title>
    <desc>Created with Sketch.</desc>
    <defs></defs>
    <g id="Symbols" stroke="none" stroke-width="1" fill="none" fill-rule="evenodd">
        <g id="Nav_Loggedin" transform="translate(-1290.000000, -8.000000)" fill-rule="nonzero" fill="#DCE9EE">
            <g id="Group-5" transform="translate(0.000000, -3.000000)">
                <path d="M1301.66327,21.3583333 C1302.4898,20.2583333 1302.94898,18.975 1302.94898,17.5083333 C1302.94898,13.9333333 1300.10204,11 1296.52041,11 C1292.93878,11 1290,13.9333333 1290,17.5083333 C1290,21.0833333 1292.93878,24.0166667 1296.52041,24.0166667 C1297.9898,24.0166667 1299.36735,23.5583333 1300.37755,22.7333333 L1303.13265,25.4833333 C1303.31633,25.6666667 1303.59184,25.7583333 1303.77551,25.7583333 C1303.95918,25.7583333 1304.23469,25.6666667 1304.41837,25.4833333 C1304.78571,25.1166667 1304.78571,24.5666667 1304.41837,24.2 L1301.66327,21.3583333 Z M1296.52041,22.0916667 C1293.94898,22.0916667 1291.83673,20.075 1291.83673,17.5083333 C1291.83673,14.9416667 1293.94898,12.8333333 1296.52041,12.8333333 C1299.09184,12.8333333 1301.20408,14.9416667 1301.20408,17.5083333 C1301.20408,20.075 1299.09184,22.0916667 1296.52041,22.0916667 Z" id="Shape"></path>
            </g>
        </g>
    </g>
</svg>