<?xml version="1.0" encoding="UTF-8"?>
<svg width="19px" height="19px" viewBox="0 0 19 19" version="1.1" xmlns="http://www.w3.org/2000/svg" xmlns:xlink="http://www.w3.org/1999/xlink">
    <!-- Generator: Sketch 45 (43475) - http://www.bohemiancoding.com/sketch -->
    <title>Shape</title>
    <desc>Created with Sketch.</desc>
    <defs></defs>
    <g id="Symbols" stroke="none" stroke-width="1" fill="none" fill-rule="evenodd">
        <g id="Mobile_nav" transform="translate(-338.000000, -18.000000)" fill-rule="nonzero" fill="#19495D">
            <g id="ui-16px-1_zoom" transform="translate(338.000000, 18.000000)">
                <path d="M14.7734694,13.1205556 C15.8204082,11.7272222 16.4020408,10.1016667 16.4020408,8.24388889 C16.4020408,3.71555556 12.7959184,0 8.25918367,0 C3.72244898,0 0,3.71555556 0,8.24388889 C0,12.7722222 3.72244898,16.4877778 8.25918367,16.4877778 C10.1204082,16.4877778 11.8653061,15.9072222 13.144898,14.8622222 L16.6346939,18.3455556 C16.8673469,18.5777778 17.2163265,18.6938889 17.4489796,18.6938889 C17.6816327,18.6938889 18.0306122,18.5777778 18.2632653,18.3455556 C18.7285714,17.8811111 18.7285714,17.1844444 18.2632653,16.72 L14.7734694,13.1205556 Z M8.25918367,14.0494444 C5.00204082,14.0494444 2.32653061,11.495 2.32653061,8.24388889 C2.32653061,4.99277778 5.00204082,2.32222222 8.25918367,2.32222222 C11.5163265,2.32222222 14.1918367,4.99277778 14.1918367,8.24388889 C14.1918367,11.495 11.5163265,14.0494444 8.25918367,14.0494444 Z" id="Shape"></path>
            </g>
        </g>
    </g>
</svg>