<?xml version="1.0" encoding="UTF-8"?>
<svg width="48px" height="48px" viewBox="0 0 48 48" version="1.1" xmlns="http://www.w3.org/2000/svg" xmlns:xlink="http://www.w3.org/1999/xlink">
    <!-- Generator: Sketch 45 (43475) - http://www.bohemiancoding.com/sketch -->
    <title>Group</title>
    <desc>Created with Sketch.</desc>
    <defs></defs>
    <g id="Design" stroke="none" stroke-width="1" fill="none" fill-rule="evenodd">
        <g id="B00_NEDC_EatingDisordersA" transform="translate(-197.000000, -1372.000000)">
            <g id="Group" transform="translate(198.000000, 1373.000000)">
                <circle id="Oval-2-Copy-12" stroke="#D1DDDD" cx="23" cy="23" r="23"></circle>
                <path d="M19.4,17.6666667 C19.4,15.4575277 21.0117749,13.6666667 23,13.6666667 C24.9882251,13.6666667 26.6,15.4575277 26.6,17.6666667 L26.6,19 L29,19 L29,17.6666667 C29,13.9847683 26.3137085,11 23,11 C19.6862915,11 17,13.9847683 17,17.6666667 L17,19 L19.4,19 L19.4,17.6666667 Z" id="Shape" fill="#95C75B" fill-rule="nonzero"></path>
                <path d="M30.7857143,21 L16.2142857,21 C15.5436542,21 15,21.5820298 15,22.3 L15,32.7 C15,33.4179702 15.5436542,34 16.2142857,34 L30.7857143,34 C31.4563458,34 32,33.4179702 32,32.7 L32,22.3 C32,21.5820298 31.4563458,21 30.7857143,21 Z M23.5,30 C22.1192881,30 21,28.8807119 21,27.5 C21,26.1192881 22.1192881,25 23.5,25 C24.8807119,25 26,26.1192881 26,27.5 C26,28.8807119 24.8807119,30 23.5,30 Z" id="Shape" fill="#95C75B" fill-rule="nonzero"></path>
            </g>
        </g>
    </g>
</svg>