<?xml version="1.0" encoding="utf-8"?>
<!-- Generator: Adobe Illustrator 16.0.0, SVG Export Plug-In . SVG Version: 6.00 Build 0)  -->
<!DOCTYPE svg PUBLIC "-//W3C//DTD SVG 1.1//EN" "http://www.w3.org/Graphics/SVG/1.1/DTD/svg11.dtd">
<svg version="1.1" id="Layer_1" xmlns="http://www.w3.org/2000/svg" xmlns:xlink="http://www.w3.org/1999/xlink" x="0px" y="0px"
	 width="119px" height="119px" viewBox="0 0 119 119" enable-background="new 0 0 119 119" xml:space="preserve">
<title>Group 4</title>
<desc>Created with Sketch.</desc>
<g id="Group">
	<circle id="Oval" fill="#EEF2EE" cx="59.779" cy="59.221" r="59.221"/>
</g>
<g>
	<path fill-rule="evenodd" clip-rule="evenodd" fill="#C2CEC2" d="M30.426,34.806c0.208-0.167,0.183-0.431,0.255-0.65
		c0.79-2.401,3.084-4.1,5.592-4.11c2.143-0.009,4.285,0.001,6.426-0.004c0.568-0.001,1.001,0.219,1.197,0.756
		c0.163,0.444,0.068,0.871-0.29,1.213c-0.277,0.266-0.621,0.295-0.983,0.294c-2.077-0.005-4.151-0.006-6.228-0.001
		c-2.104,0.004-3.713,1.622-3.713,3.734c-0.001,17.136-0.001,34.273,0,51.41c0,2.059,1.627,3.672,3.703,3.672
		c15.591,0.001,31.181,0.001,46.773,0c2.106,0,3.718-1.614,3.718-3.727c0.001-17.114,0.001-34.229,0-51.343
		c0-2.147-1.608-3.746-3.768-3.748c-2.054-0.002-4.107,0.002-6.162-0.001c-0.876-0.001-1.339-0.385-1.348-1.101
		c-0.011-0.734,0.481-1.154,1.374-1.156c2.076-0.003,4.151-0.003,6.228,0c2.766,0.003,5.161,1.904,5.809,4.602
		c0.025,0.101,0.082,0.195,0.124,0.292c0,17.846,0,35.692,0,53.538c-0.199,2.236-1.564,3.597-3.43,4.59
		c-0.629,0.336-1.313,0.373-1.994,0.373c-15.953,0.007-31.906-0.02-47.858,0.031c-2.44,0.008-5.323-2.43-5.425-4.86
		C30.426,70.675,30.426,52.74,30.426,34.806z"/>
	<path fill-rule="evenodd" clip-rule="evenodd" fill="#C2CEC2" d="M60.641,25.529c0.221,0.232,0.53,0.125,0.795,0.199
		c2.098,0.594,3.633,1.849,4.517,3.847c0.178,0.401,0.395,0.483,0.792,0.479c1.699-0.021,3.398-0.011,5.098-0.009
		c1.102,0.001,1.493,0.379,1.494,1.456c0.004,2.053,0.004,4.105,0,6.158c-0.002,1.048-0.384,1.429-1.442,1.429
		c-8.077,0.002-16.156,0.002-24.233,0c-1.058,0-1.438-0.381-1.439-1.432c-0.004-2.052-0.004-4.105,0-6.158
		c0.002-1.051,0.396-1.451,1.431-1.453c1.743-0.004,3.487-0.009,5.23,0.006c0.344,0.003,0.533-0.066,0.693-0.419
		c0.995-2.201,2.68-3.551,5.072-3.991c0.052-0.009,0.093-0.073,0.139-0.111C59.404,25.529,60.022,25.529,60.641,25.529z"/>
	<path fill-rule="evenodd" clip-rule="evenodd" fill="#C2CEC2" d="M34.936,60.148c0-7.994,0-15.987,0.001-23.98
		c0-1.267,0.338-1.603,1.611-1.604c2.032,0,4.063-0.005,6.094,0.003c0.78,0.003,1.256,0.388,1.311,1.021
		c0.065,0.728-0.404,1.227-1.211,1.233c-1.657,0.014-3.312,0.021-4.968-0.006c-0.455-0.007-0.593,0.103-0.592,0.577
		c0.013,15.589,0.009,31.179,0.013,46.768c0,1.492,0.946,2.441,2.443,2.442c10.29,0.005,20.579-0.001,30.869,0.013
		c0.468,0.001,0.592-0.128,0.584-0.589c-0.028-1.634-0.018-3.269-0.01-4.901c0.011-2.087,1.444-3.546,3.518-3.569
		c1.369-0.016,2.737-0.009,4.106-0.002c0.889,0.004,1.412,0.438,1.401,1.14c-0.011,0.697-0.539,1.119-1.431,1.123
		c-1.324,0.007-2.649-0.004-3.974,0.004c-0.95,0.006-1.361,0.422-1.363,1.378c-0.005,2.053,0,4.106-0.002,6.16
		c-0.002,1.126-0.384,1.505-1.517,1.505c-10.688,0.001-21.374,0.002-32.062,0c-2.897,0-4.821-1.917-4.822-4.802
		C34.934,76.091,34.936,68.119,34.936,60.148z"/>
	<path fill-rule="evenodd" clip-rule="evenodd" fill="#C2CEC2" d="M84.622,58.371c0,7.373-0.006,14.746,0.011,22.12
		c0.002,0.648-0.202,1.122-0.66,1.572c-2.138,2.108-4.25,4.241-6.369,6.368c-0.419,0.419-0.893,0.578-1.434,0.276
		c-0.48-0.266-0.644-0.703-0.552-1.237c0.056-0.324,0.284-0.535,0.504-0.754c1.936-1.936,3.864-3.879,5.81-5.804
		c0.302-0.298,0.443-0.59,0.443-1.027c-0.013-14.128-0.014-28.257,0.002-42.386c0.001-0.547-0.132-0.701-0.686-0.688
		c-1.589,0.04-3.179,0.019-4.768,0.012c-0.86-0.003-1.329-0.411-1.325-1.125c0.003-0.703,0.492-1.13,1.335-1.133
		c2.098-0.006,4.194-0.006,6.292,0c0.996,0.003,1.395,0.411,1.396,1.42C84.623,43.448,84.622,50.91,84.622,58.371z"/>
	<path fill-rule="evenodd" clip-rule="evenodd" fill="#C2CEC2" d="M64.215,63.971c-3.288,0-6.576-0.004-9.865,0.004
		c-0.444,0.001-0.832-0.08-1.113-0.451c-0.51-0.671-0.132-1.641,0.708-1.793c0.192-0.034,0.396-0.018,0.594-0.018
		c6.511-0.001,13.021-0.001,19.533-0.001c0.088,0,0.177-0.003,0.265,0.001c0.748,0.023,1.273,0.509,1.253,1.161
		c-0.018,0.635-0.519,1.089-1.245,1.093c-1.611,0.01-3.222,0.004-4.833,0.004C67.747,63.971,65.981,63.971,64.215,63.971z"/>
	<path fill-rule="evenodd" clip-rule="evenodd" fill="#C2CEC2" d="M63.161,70.752c-2.935,0-5.868-0.004-8.803,0.003
		c-0.438,0.002-0.831-0.065-1.117-0.438c-0.467-0.609-0.216-1.46,0.507-1.74c0.279-0.108,0.564-0.085,0.849-0.085
		c5.715-0.002,11.428-0.001,17.143-0.001c0.132,0,0.265-0.006,0.396,0.002c0.714,0.043,1.208,0.524,1.196,1.158
		c-0.013,0.64-0.501,1.095-1.236,1.098C69.118,70.757,66.141,70.751,63.161,70.752z"/>
	<path fill-rule="evenodd" clip-rule="evenodd" fill="#C2CEC2" d="M63.158,48.156c2.955,0,5.912-0.006,8.868,0.003
		c1.028,0.003,1.609,0.851,1.154,1.663c-0.27,0.481-0.721,0.601-1.238,0.599c-1.633-0.007-3.265-0.002-4.897-0.002
		c-4.17,0-8.339-0.001-12.508,0.002c-0.403,0-0.805,0.002-1.125-0.282c-0.359-0.319-0.499-0.72-0.345-1.191
		c0.17-0.524,0.543-0.787,1.09-0.788c1.765-0.003,3.53-0.003,5.295-0.003C60.688,48.156,61.922,48.156,63.158,48.156z"/>
	<path fill-rule="evenodd" clip-rule="evenodd" fill="#C2CEC2" d="M61.967,57.196c-2.559,0-5.118-0.001-7.675,0.002
		c-0.588,0-1.031-0.214-1.223-0.802c-0.164-0.5,0-0.907,0.392-1.235c0.234-0.195,0.514-0.225,0.808-0.225
		c5.182,0.002,10.365,0,15.548,0.004c0.755,0,1.276,0.489,1.261,1.143c-0.016,0.655-0.531,1.109-1.304,1.11
		C67.17,57.2,64.568,57.196,61.967,57.196z"/>
	<path fill-rule="evenodd" clip-rule="evenodd" fill="#C2CEC2" d="M59.728,77.553c-1.81,0-3.621,0.012-5.431-0.005
		c-0.959-0.009-1.503-0.703-1.221-1.503c0.186-0.526,0.591-0.761,1.122-0.761c3.708-0.007,7.417-0.011,11.126,0.001
		c0.736,0.003,1.221,0.477,1.232,1.114c0.011,0.66-0.49,1.142-1.266,1.148C63.437,77.563,61.582,77.553,59.728,77.553z"/>
	<path fill-rule="evenodd" clip-rule="evenodd" fill="#C2CEC2" d="M46.233,75.288c0.396,0,0.793-0.028,1.186,0.007
		c0.65,0.058,1.058,0.514,1.055,1.127c-0.002,0.614-0.408,1.08-1.066,1.112c-0.789,0.039-1.583,0.04-2.372-0.002
		c-0.64-0.034-1.075-0.535-1.071-1.122c0.003-0.585,0.446-1.063,1.082-1.117c0.393-0.034,0.791-0.007,1.187-0.007
		C46.233,75.287,46.233,75.288,46.233,75.288z"/>
	<path fill-rule="evenodd" clip-rule="evenodd" fill="#C2CEC2" d="M46.262,63.965c-0.418,0-0.837,0.023-1.253-0.005
		c-0.581-0.04-1.025-0.521-1.044-1.082c-0.018-0.55,0.408-1.11,0.979-1.144c0.854-0.047,1.715-0.049,2.569,0
		c0.587,0.033,0.974,0.555,0.96,1.144c-0.014,0.588-0.423,1.038-1.024,1.082C47.055,63.987,46.658,63.965,46.262,63.965z"/>
	<path fill-rule="evenodd" clip-rule="evenodd" fill="#C2CEC2" d="M46.204,70.748c-0.374,0-0.749,0.017-1.121-0.004
		c-0.64-0.034-1.093-0.48-1.117-1.073c-0.023-0.553,0.385-1.108,0.971-1.148c0.852-0.058,1.714-0.059,2.567-0.003
		c0.624,0.041,1.008,0.588,0.967,1.201c-0.039,0.58-0.457,0.989-1.08,1.023C46.995,70.766,46.599,70.748,46.204,70.748z"/>
	<path fill-rule="evenodd" clip-rule="evenodd" fill="#C2CEC2" d="M46.242,54.941c0.373-0.001,0.747-0.015,1.121,0.001
		c0.653,0.029,1.084,0.453,1.109,1.065c0.024,0.613-0.38,1.138-1.003,1.17c-0.833,0.043-1.671,0.043-2.503-0.003
		c-0.577-0.032-1.007-0.573-1-1.125c0.008-0.587,0.471-1.07,1.09-1.103C45.449,54.924,45.846,54.941,46.242,54.941z"/>
	<path fill-rule="evenodd" clip-rule="evenodd" fill="#C2CEC2" d="M46.185,50.415c-0.352,0-0.705,0.019-1.055-0.003
		c-0.704-0.045-1.191-0.551-1.164-1.179c0.027-0.615,0.496-1.056,1.186-1.072c0.724-0.018,1.45-0.019,2.175,0.001
		c0.701,0.019,1.136,0.451,1.145,1.093c0.01,0.632-0.423,1.104-1.102,1.155C46.977,50.439,46.58,50.415,46.185,50.415z"/>
	<path fill-rule="evenodd" clip-rule="evenodd" fill="#EEF2EE" d="M59.766,36.826c-3.556,0-7.112-0.009-10.667,0.011
		c-0.476,0.002-0.656-0.084-0.635-0.608c0.045-1.125,0.032-2.252,0.004-3.378c-0.01-0.428,0.104-0.564,0.548-0.558
		c1.656,0.027,3.312,0.013,4.969,0.01c0.89-0.002,1.16-0.212,1.407-1.07c0.604-2.099,2.329-3.449,4.399-3.444
		c2.062,0.005,3.771,1.359,4.381,3.471c0.236,0.823,0.514,1.041,1.359,1.043c1.679,0.004,3.357,0.014,5.035-0.008
		c0.404-0.005,0.533,0.101,0.523,0.516c-0.028,1.148-0.033,2.297,0.001,3.445c0.015,0.474-0.138,0.583-0.592,0.581
		C66.921,36.818,63.343,36.826,59.766,36.826z"/>
	<path fill-rule="evenodd" clip-rule="evenodd" fill="#C2CEC2" d="M59.767,34.562c-1.257-0.005-2.264-1.026-2.245-2.278
		c0.019-1.223,1.02-2.224,2.234-2.238c1.24-0.014,2.271,1.009,2.277,2.26C62.038,33.559,61.025,34.567,59.767,34.562z"/>
</g>
</svg>
