<?xml version="1.0" encoding="UTF-8"?>
<svg width="15px" height="15px" viewBox="0 0 15 15" version="1.1" xmlns="http://www.w3.org/2000/svg" xmlns:xlink="http://www.w3.org/1999/xlink">
    <!-- Generator: Sketch 45 (43475) - http://www.bohemiancoding.com/sketch -->
    <title>np_settings_972119_000000</title>
    <desc>Created with Sketch.</desc>
    <defs></defs>
    <g id="Design" stroke="none" stroke-width="1" fill="none" fill-rule="evenodd">
        <g id="C00_NEDC_Research" transform="translate(-285.000000, -390.000000)" fill-rule="nonzero" fill="#B9B9B9">
            <g id="np_settings_972119_000000" transform="translate(285.000000, 390.000000)">
                <path d="M6.45613636,-2.34156129e-15 L5.93413636,1.82175 C5.46006818,1.95225341 5.00996591,2.13735682 4.59180682,2.37572727 L2.94051136,1.45953409 L1.45967045,2.940375 L2.37586364,4.59167045 C2.13749318,5.00982955 1.95238636,5.45993182 1.82188636,5.934 L0.000136363636,6.456 L0.000136363636,8.54406818 L1.82188636,9.06606818 C1.95238977,9.54013636 2.13749318,9.99023864 2.37586364,10.4083977 L1.45967045,12.0596932 L2.94051136,13.5405341 L4.59180682,12.6243409 C5.00996591,12.8627114 5.46006818,13.0478182 5.93413636,13.1783182 L6.45613636,15.0000682 L8.54420455,15.0000682 L9.06620455,13.1783182 C9.54027273,13.0478148 9.990375,12.8627114 10.4085341,12.6243409 L12.0598295,13.5405341 L13.5406705,12.0596932 L12.6244773,10.4083977 C12.8628477,9.99023864 13.0479545,9.54013636 13.1784545,9.06606818 L15.0002045,8.54406818 L15.0002045,6.456 L13.1784545,5.934 C13.0479511,5.45993182 12.8628477,5.00982955 12.6244773,4.59167045 L13.5406705,2.940375 L12.0598295,1.45953409 L10.4085341,2.37572727 C9.990375,2.13735682 9.54027273,1.95225 9.06620455,1.82175 L8.54420455,-3.55271368e-15 L6.45613636,-2.34156129e-15 Z M7.5,4 C9.420905,4 11,5.579095 11,7.5 C11,9.420905 9.420905,11 7.5,11 C5.579095,11 4,9.420905 4,7.5 C4,5.579095 5.579095,4 7.5,4 L7.5,4 Z M7.5,6 C6.6577125,6 6,6.6577125 6,7.5 C6,8.3422875 6.6577125,9 7.5,9 C8.3422875,9 9,8.3422875 9,7.5 C9,6.6577125 8.3422875,6 7.5,6 L7.5,6 Z" id="Shape"></path>
            </g>
        </g>
    </g>
</svg>