<?xml version="1.0" encoding="UTF-8"?>
<svg width="23px" height="19px" viewBox="0 0 23 19" version="1.1" xmlns="http://www.w3.org/2000/svg" xmlns:xlink="http://www.w3.org/1999/xlink">
    <!-- Generator: Sketch 45 (43475) - http://www.bohemiancoding.com/sketch -->
    <title>Shape</title>
    <desc>Created with Sketch.</desc>
    <defs></defs>
    <g id="Design" stroke="none" stroke-width="1" fill="none" fill-rule="evenodd">
        <g id="B02_NEDC_EatingDisorders_PageD" transform="translate(-272.000000, -2742.000000)" fill-rule="nonzero" fill="#19495D">
            <g id="Group" transform="translate(241.000000, 2742.000000)">
                <path d="M54,2.24799897 C53.1534708,2.62947504 52.2451573,2.88818774 51.290806,3.00368926 C52.2652635,2.41024382 53.0111863,1.46895613 53.3647179,0.350785224 C52.4506543,0.900353839 51.4416968,1.29941121 50.366633,1.51573768 C49.5057476,0.581750044 48.281221,0 46.9230162,0 C44.3173224,0 42.2045886,2.14862639 42.2045886,4.79713509 C42.2045886,5.17276346 42.2462667,5.5396394 42.3267669,5.89046285 C38.4060121,5.69018887 34.929361,3.77982737 32.6024863,0.876963061 C32.1957389,1.58441942 31.964348,2.40875324 31.964348,3.28869747 C31.964348,4.95353225 32.797949,6.42248838 34.0627256,7.28190836 C33.2894809,7.25561284 32.5622362,7.03928637 31.9255636,6.67971049 L31.9255636,6.7396398 C31.9255636,9.0636588 33.5525156,11.0032588 35.7097838,11.4447024 C35.3145365,11.5528656 34.8977547,11.6127949 34.4665792,11.6127949 C34.1619039,11.6127949 33.8672629,11.5821041 33.5783719,11.5236271 C34.1791163,13.4310839 35.9210685,14.8181723 37.9849461,14.8562014 C36.3709222,16.1424649 34.3357947,16.9069076 32.1253482,16.9069076 C31.7444947,16.9069076 31.3693535,16.8835168 31,16.8411306 C33.0883057,18.2048664 35.5675369,19 38.2321589,19 C46.9115914,19 51.6559128,11.688815 51.6559128,5.3481943 L51.6400909,4.72700098 C52.5670826,4.05459256 53.3690398,3.20977271 54,2.24799897 Z" id="Shape"></path>
            </g>
        </g>
    </g>
</svg>