<?xml version="1.0" encoding="UTF-8"?>
<svg width="23px" height="19px" viewBox="0 0 23 19" version="1.1" xmlns="http://www.w3.org/2000/svg" xmlns:xlink="http://www.w3.org/1999/xlink">
    <!-- Generator: Sketch 45 (43475) - http://www.bohemiancoding.com/sketch -->
    <title>Shape</title>
    <desc>Created with Sketch.</desc>
    <defs></defs>
    <g id="Design" stroke="none" stroke-width="1" fill="none" fill-rule="evenodd">
        <g id="C05_NEDC_Research_Details" transform="translate(-1034.000000, -476.000000)" fill-rule="nonzero" fill="#7B9E9E">
            <path d="M1057,478.247999 C1056.15347,478.629475 1055.24516,478.888188 1054.29081,479.003689 C1055.26526,478.410244 1056.01119,477.468956 1056.36472,476.350785 C1055.45065,476.900354 1054.4417,477.299411 1053.36663,477.515738 C1052.50575,476.58175 1051.28122,476 1049.92302,476 C1047.31732,476 1045.20459,478.148626 1045.20459,480.797135 C1045.20459,481.172763 1045.24627,481.539639 1045.32677,481.890463 C1041.40601,481.690189 1037.92936,479.779827 1035.60249,476.876963 C1035.19574,477.584419 1034.96435,478.408753 1034.96435,479.288697 C1034.96435,480.953532 1035.79795,482.422488 1037.06273,483.281908 C1036.28948,483.255613 1035.56224,483.039286 1034.92556,482.67971 L1034.92556,482.73964 C1034.92556,485.063659 1036.55252,487.003259 1038.70978,487.444702 C1038.31454,487.552866 1037.89775,487.612795 1037.46658,487.612795 C1037.1619,487.612795 1036.86726,487.582104 1036.57837,487.523627 C1037.17912,489.431084 1038.92107,490.818172 1040.98495,490.856201 C1039.37092,492.142465 1037.33579,492.906908 1035.12535,492.906908 C1034.74449,492.906908 1034.36935,492.883517 1034,492.841131 C1036.08831,494.204866 1038.56754,495 1041.23216,495 C1049.91159,495 1054.65591,487.688815 1054.65591,481.348194 L1054.64009,480.727001 C1055.56708,480.054593 1056.36904,479.209773 1057,478.247999 Z" id="Shape"></path>
        </g>
    </g>
</svg>