<?xml version="1.0" encoding="UTF-8"?>
<svg width="47px" height="47px" viewBox="0 0 47 47" version="1.1" xmlns="http://www.w3.org/2000/svg" xmlns:xlink="http://www.w3.org/1999/xlink">
    <!-- Generator: Sketch 45 (43475) - http://www.bohemiancoding.com/sketch -->
    <title>Group 5</title>
    <desc>Created with Sketch.</desc>
    <defs></defs>
    <g id="Symbols" stroke="none" stroke-width="1" fill="none" fill-rule="evenodd">
        <g id="Footer" transform="translate(-1075.000000, -211.000000)">
            <g id="Group-5" transform="translate(1075.000000, 211.000000)">
                <circle id="Oval-2-Copy" fill="#16343C" cx="23.5" cy="23.5" r="23.5"></circle>
                <path d="M32.9405405,17.8208333 C32.2302703,18.1375 31.52,18.375 30.7308108,18.4541667 C31.52,17.9791667 32.1513514,17.1875 32.467027,16.3166667 C31.6778378,16.7916667 30.8886486,17.1083333 30.0205405,17.2666667 C29.3102703,16.475 28.2843243,16 27.1794595,16 C25.0486486,16 23.3124324,17.7416667 23.3124324,19.8791667 C23.3124324,20.1958333 23.3124324,20.5125 23.3913514,20.75 C20.0767568,20.5916667 17.2356757,19.0083333 15.3416216,16.6333333 C14.947027,17.2666667 14.7891892,17.9 14.7891892,18.6125 C14.7891892,19.9583333 15.4994595,21.1458333 16.5254054,21.8583333 C15.8940541,21.8583333 15.2627027,21.7 14.7891892,21.3833333 C14.7891892,21.3833333 14.7891892,21.3833333 14.7891892,21.4625 C14.7891892,23.3625 16.1308108,24.9458333 17.867027,25.2625 C17.5513514,25.3416667 17.2356757,25.4208333 16.8410811,25.4208333 C16.6043243,25.4208333 16.3675676,25.4208333 16.1308108,25.3416667 C16.6043243,26.925 18.0248649,28.0333333 19.7610811,28.0333333 C18.4194595,29.0625 16.7621622,29.6958333 14.947027,29.6958333 C14.6313514,29.6958333 14.3156757,29.6958333 14,29.6166667 C15.7362162,30.725 17.7881081,31.3583333 19.9189189,31.3583333 C27.1005405,31.3583333 30.9675676,25.4208333 30.9675676,20.275 L30.9675676,19.8 C31.7567568,19.2458333 32.3881081,18.5333333 32.9405405,17.8208333 Z" id="Shape" fill="#FFFFFF" fill-rule="nonzero"></path>
            </g>
        </g>
    </g>
</svg>