<?xml version="1.0" encoding="UTF-8"?>
<svg width="24px" height="30px" viewBox="0 0 24 30" version="1.1" xmlns="http://www.w3.org/2000/svg" xmlns:xlink="http://www.w3.org/1999/xlink">
    <!-- Generator: Sketch 45 (43475) - http://www.bohemiancoding.com/sketch -->
    <title>np_hospital_192210_000000</title>
    <desc>Created with Sketch.</desc>
    <defs></defs>
    <g id="Design" stroke="none" stroke-width="1" fill="none" fill-rule="evenodd">
        <g id="B00_NEDC_EatingDisordersA" transform="translate(-1161.000000, -1692.000000)" fill-rule="nonzero" fill="#0F3444">
            <g id="np_hospital_192210_000000" transform="translate(1161.000000, 1692.000000)">
                <path d="M12,0 C8.85416667,0 5.83733333,1.2487 3.612,3.474 C1.38803333,5.69796667 0.138,8.715 0.138,11.862 C0.140604333,14.2969 0.8919,16.6733333 2.29163333,18.6666667 C3.69136667,20.66 5.67063333,22.1743333 7.96096667,23.004 L11.9999667,30 L16.0429667,22.9973333 C18.3307333,22.1679 20.3086333,20.6549 21.7083,18.6626667 C23.1067333,16.6704667 23.8580333,14.2953333 23.8619333,11.862 C23.8619333,8.71616667 22.6119333,5.69933333 20.3879333,3.474 C18.1626667,1.25003333 15.1456,1.18423789e-15 11.9999333,1.18423789e-15 L12,0 Z M12,3.0625 C14.3333333,3.0625 16.5716667,3.98956667 18.2213333,5.64063333 C19.8723667,7.29036667 20.7981667,9.52863333 20.7981667,11.8619667 C20.7981667,14.1953 19.8711,16.4336333 18.2213333,18.0833 C16.5716,19.7330333 14.3333333,20.6601333 12,20.6601333 C9.66666667,20.6601333 7.42833333,19.7330667 5.77866667,18.0833 C4.12893333,16.4335667 3.20183333,14.1953 3.20183333,11.8619667 C3.20183333,9.52863333 4.1289,7.2903 5.77866667,5.64063333 C7.4284,3.9896 9.66666667,3.0625 12,3.0625 Z" id="Shape"></path>
                <path d="M12,5.51033333 C8.49733333,5.51033333 5.64966667,8.3593 5.64966667,11.862 C5.64966667,15.3646667 8.49733333,18.2136667 12,18.2136667 C15.5026667,18.2136667 18.3503333,15.3647 18.3503333,11.862 C18.3503333,8.35933333 15.5026667,5.51033333 12,5.51033333 Z M10.7122333,7.9947 L13.2903667,7.9947 L13.2903667,10.5728333 L15.8685,10.5728333 L15.8685,13.1509667 L13.2903667,13.1509667 L13.2903667,15.7291 L10.7122333,15.7291 L10.7122333,13.1509667 L8.1341,13.1509667 L8.1341,10.5728333 L10.7122333,10.5728333 L10.7122333,7.9947 Z" id="Shape"></path>
            </g>
        </g>
    </g>
</svg>