<?xml version="1.0" encoding="UTF-8"?>
<svg width="12px" height="12px" viewBox="0 0 12 12" version="1.1" xmlns="http://www.w3.org/2000/svg" xmlns:xlink="http://www.w3.org/1999/xlink">
    <!-- Generator: Sketch 45 (43475) - http://www.bohemiancoding.com/sketch -->
    <title>Shape</title>
    <desc>Created with Sketch.</desc>
    <defs></defs>
    <g id="Design" stroke="none" stroke-width="1" fill="none" fill-rule="evenodd">
        <g id="B02_NEDC_EatingDisorders_PageD" transform="translate(-827.000000, -1454.000000)" fill-rule="nonzero" fill="#1D687E">
            <path d="M840,1459 L834,1459 L834,1453 C834,1452.4 833.6,1452 833,1452 C832.4,1452 832,1452.4 832,1453 L832,1459 L826,1459 C825.4,1459 825,1459.4 825,1460 C825,1460.6 825.4,1461 826,1461 L832,1461 L832,1467 C832,1467.6 832.4,1468 833,1468 C833.6,1468 834,1467.6 834,1467 L834,1461 L840,1461 C840.6,1461 841,1460.6 841,1460 C841,1459.4 840.6,1459 840,1459 Z" id="Shape" transform="translate(833.000000, 1460.000000) rotate(45.000000) translate(-833.000000, -1460.000000) "></path>
        </g>
    </g>
</svg>