<?xml version="1.0" encoding="utf-8"?>
<!-- Generator: Adobe Illustrator 16.0.0, SVG Export Plug-In . SVG Version: 6.00 Build 0)  -->
<!DOCTYPE svg PUBLIC "-//W3C//DTD SVG 1.1//EN" "http://www.w3.org/Graphics/SVG/1.1/DTD/svg11.dtd">
<svg version="1.1" id="Layer_1" xmlns="http://www.w3.org/2000/svg" xmlns:xlink="http://www.w3.org/1999/xlink" x="0px" y="0px"
	 width="16px" height="16px" viewBox="42 42 16 16" enable-background="new 42 42 16 16" xml:space="preserve">
<path fill="#1F1F1F" d="M47.455,48.886h-3.818c-0.778,0-1.414-0.636-1.414-1.414v-3.818c0-0.778,0.636-1.415,1.414-1.415h3.841
	c0.778,0,1.415,0.636,1.415,1.415v3.842C48.869,48.273,48.232,48.886,47.455,48.886L47.455,48.886z M56.341,48.886h-3.843
	c-0.777,0-1.414-0.636-1.414-1.414v-3.818c0-0.778,0.637-1.415,1.414-1.415h3.841c0.778,0,1.414,0.636,1.414,1.415v3.842
	C57.753,48.273,57.117,48.886,56.341,48.886L56.341,48.886z M47.502,57.536H43.66c-0.779,0-1.415-0.638-1.415-1.414l0.001-3.818
	c0-0.779,0.636-1.416,1.414-1.416h3.841c0.777,0,1.415,0.637,1.415,1.416v3.839C48.893,56.898,48.257,57.536,47.502,57.536
	L47.502,57.536z M56.362,57.536h-3.817c-0.777,0-1.415-0.638-1.415-1.414v-3.818c0-0.779,0.638-1.416,1.415-1.416l3.817,0.001
	c0.78,0,1.415,0.637,1.415,1.416v3.84C57.777,56.898,57.143,57.536,56.362,57.536L56.362,57.536z"/>
</svg>
