<?xml version="1.0" encoding="utf-8"?>
<!-- Generator: Adobe Illustrator 16.0.0, SVG Export Plug-In . SVG Version: 6.00 Build 0)  -->
<!DOCTYPE svg PUBLIC "-//W3C//DTD SVG 1.1//EN" "http://www.w3.org/Graphics/SVG/1.1/DTD/svg11.dtd">
<svg version="1.1" id="Layer_1" xmlns="http://www.w3.org/2000/svg" xmlns:xlink="http://www.w3.org/1999/xlink" x="0px" y="0px"
	 width="16px" height="16px" viewBox="42 42 16 16" enable-background="new 42 42 16 16" xml:space="preserve">
<path fill="#1F1F1F" d="M57.424,45.142c0.235,0,0.391-0.156,0.391-0.391v-0.782c0-0.235-0.155-0.391-0.391-0.391h-3.442
	l-0.078-0.861c-0.079-0.47-0.392-0.704-0.86-0.704c-0.47,0-0.704,0.47-0.704,0.86l0.077,0.705h-4.068l0.078-0.705
	c0-0.391-0.234-0.783-0.705-0.86c-0.391-0.078-0.782,0.234-0.86,0.704l-0.078,0.861h-4.225c-0.235,0-0.391,0.156-0.391,0.391v0.782
	c0,0.235,0.156,0.391,0.391,0.391h0.391v7.823h-0.391c-0.235,0-0.391,0.157-0.391,0.392v0.782c0,0.235,0.156,0.392,0.391,0.392
	h2.973l-0.235,2.27c-0.078,0.782,0.782,0.859,0.782,0.859c0.391,0,0.704-0.312,0.782-0.704l0.235-2.425h6.493l0.313,2.425
	c0.078,0.704,0.86,0.704,0.86,0.704c0.392-0.077,0.704-0.393,0.704-0.859l-0.233-2.27h2.189c0.235,0,0.391-0.156,0.391-0.392v-0.782
	c0-0.234-0.155-0.392-0.391-0.392h-0.391v-7.823H57.424z"/>
</svg>
