<?xml version="1.0" encoding="utf-8"?>
<!-- Generator: Adobe Illustrator 16.0.0, SVG Export Plug-In . SVG Version: 6.00 Build 0)  -->
<!DOCTYPE svg PUBLIC "-//W3C//DTD SVG 1.1//EN" "http://www.w3.org/Graphics/SVG/1.1/DTD/svg11.dtd">
<svg version="1.1" id="Layer_1" xmlns="http://www.w3.org/2000/svg" xmlns:xlink="http://www.w3.org/1999/xlink" x="0px" y="0px"
	 width="16px" height="16px" viewBox="0 0 16 16" enable-background="new 0 0 16 16" xml:space="preserve">
<g>
	<path fill="#1F1F1F" d="M0.212,3.396c0-0.152,0-0.303,0-0.454c0.011-0.045,0.022-0.09,0.032-0.135
		c0.11-0.513,0.345-0.932,0.872-1.118C1.208,1.658,1.305,1.639,1.4,1.614c4.391,0,8.781,0,13.17,0
		c0.037,0.011,0.073,0.022,0.109,0.03c0.533,0.103,0.998,0.58,1.083,1.117c0.064,0.389-0.005,0.761-0.16,1.115
		c-0.292,0.657-0.777,1.148-1.359,1.553c-1.432,0.998-2.863,1.998-4.301,2.989C9.533,8.7,9.114,8.974,8.682,9.219
		c-0.443,0.254-0.909,0.24-1.364,0.006c-0.196-0.102-0.394-0.204-0.575-0.33c-1.646-1.143-3.29-2.289-4.934-3.438
		C1.062,4.936,0.465,4.299,0.212,3.396z"/>
	<path fill-rule="evenodd" clip-rule="evenodd" fill="#1F1F1F" d="M0.212,5.571C0.705,6.118,1.338,6.48,1.932,6.894
		c0.69,0.481,1.388,0.955,2.083,1.431C4.037,8.341,4.06,8.359,4.09,8.382c-0.025,0.03-0.045,0.06-0.07,0.085
		c-1.254,1.257-2.51,2.514-3.764,3.769c-0.014,0.014-0.029,0.024-0.044,0.036C0.212,10.039,0.212,7.805,0.212,5.571z"/>
	<path fill-rule="evenodd" clip-rule="evenodd" fill="#1F1F1F" d="M15.271,13.532c-0.202,0.188-0.476,0.294-0.783,0.319
		c-0.044,0.003-0.086,0.003-0.13,0.003c-4.237,0-8.476,0-12.715,0c-0.357,0-0.673-0.103-0.936-0.339
		c1.468-1.47,2.93-2.937,4.402-4.413c0.271,0.196,0.545,0.394,0.818,0.59c0.379,0.277,0.794,0.484,1.229,0.655
		c0.627,0.248,1.238,0.192,1.851-0.064c0.557-0.233,1.046-0.57,1.527-0.926c0.114-0.084,0.229-0.166,0.333-0.239
		C12.338,10.59,13.803,12.059,15.271,13.532z"/>
	<path fill-rule="evenodd" clip-rule="evenodd" fill="#1F1F1F" d="M15.779,5.571c0,2.248,0,4.46,0,6.659
		c-1.284-1.279-2.571-2.558-3.871-3.853c0.654-0.449,1.313-0.893,1.963-1.347C14.521,6.577,15.22,6.188,15.779,5.571z"/>
</g>
</svg>
