<?xml version="1.0" encoding="utf-8"?>
<!-- Generator: Adobe Illustrator 16.0.0, SVG Export Plug-In . SVG Version: 6.00 Build 0)  -->
<!DOCTYPE svg PUBLIC "-//W3C//DTD SVG 1.1//EN" "http://www.w3.org/Graphics/SVG/1.1/DTD/svg11.dtd">
<svg version="1.1" id="Layer_1" xmlns="http://www.w3.org/2000/svg" xmlns:xlink="http://www.w3.org/1999/xlink" x="0px" y="0px"
	 width="16px" height="16px" viewBox="42 42 16 16" enable-background="new 42 42 16 16" xml:space="preserve">
<path fill="#1F1F1F" d="M56.501,43.982h-1.002v-0.743c0-0.684-0.56-1.239-1.248-1.239c-0.69,0-1.25,0.555-1.25,1.239v0.743H47
	v-0.743C47,42.555,46.44,42,45.75,42s-1.25,0.555-1.25,1.239v0.743h-1c-0.828,0-1.5,0.667-1.5,1.487v10.906
	c0,0.819,0.672,1.486,1.5,1.486h13.001c0.826,0,1.499-0.667,1.499-1.486V45.47C58,44.649,57.327,43.982,56.501,43.982z M56,55.88H44
	v-8.427h12V55.88z M45.5,50.426v-0.991c0-0.273,0.224-0.495,0.5-0.495h1c0.276,0,0.5,0.222,0.5,0.495v0.991
	c0,0.275-0.225,0.496-0.5,0.496h-1C45.724,50.922,45.5,50.701,45.5,50.426z M49,50.426v-0.991c0-0.273,0.224-0.495,0.5-0.495h1
	c0.276,0,0.5,0.222,0.5,0.495v0.991c0,0.275-0.224,0.496-0.5,0.496h-1C49.224,50.922,49,50.701,49,50.426z M52.5,50.426v-0.991
	c0-0.273,0.223-0.495,0.501-0.495H54c0.275,0,0.5,0.222,0.5,0.495v0.991c0,0.275-0.225,0.496-0.5,0.496h-0.999
	C52.723,50.922,52.5,50.701,52.5,50.426z M45.5,53.896v-0.99c0-0.275,0.224-0.497,0.5-0.497h1c0.276,0,0.5,0.222,0.5,0.497v0.99
	c0,0.273-0.225,0.496-0.5,0.496h-1C45.724,54.393,45.5,54.17,45.5,53.896z M49,53.896v-0.99c0-0.275,0.224-0.497,0.5-0.497h1
	c0.276,0,0.5,0.222,0.5,0.497v0.99c0,0.273-0.224,0.496-0.5,0.496h-1C49.224,54.393,49,54.17,49,53.896z"/>
</svg>
