<?xml version="1.0" encoding="utf-8"?>
<!-- Generator: Adobe Illustrator 16.0.0, SVG Export Plug-In . SVG Version: 6.00 Build 0)  -->
<!DOCTYPE svg PUBLIC "-//W3C//DTD SVG 1.1//EN" "http://www.w3.org/Graphics/SVG/1.1/DTD/svg11.dtd">
<svg version="1.1" id="Layer_1" xmlns="http://www.w3.org/2000/svg" xmlns:xlink="http://www.w3.org/1999/xlink" x="0px" y="0px"
	 width="16px" height="16px" viewBox="42 42 16 16" enable-background="new 42 42 16 16" xml:space="preserve">
<path fill="#1F1F1F" d="M55.672,42.438h-7.562c-1.044,0-1.891,0.846-1.891,1.891v10.398c0,0.521-0.423,0.945-0.945,0.945
	s-0.945-0.424-0.945-0.945v-5.672c0-0.522-0.423-0.945-0.945-0.945s-0.945,0.423-0.945,0.945v5.672c0,0.752,0.298,1.473,0.831,2.005
	c0.532,0.532,1.253,0.831,2.005,0.831h9.926c0.627,0,1.229-0.249,1.671-0.692c0.443-0.443,0.692-1.044,0.692-1.671V44.328
	C57.562,43.284,56.717,42.438,55.672,42.438L55.672,42.438z M53.072,54.727h-4.49v-1.418h4.49V54.727z M55.199,51.891h-6.617v-1.418
	h6.617V51.891z M53.072,49.055h-4.49v-1.418h4.49V49.055z M55.199,46.219h-6.617v-1.418h6.617V46.219z"/>
</svg>
