<?xml version="1.0" encoding="utf-8"?>
<!-- Generator: Adobe Illustrator 16.0.0, SVG Export Plug-In . SVG Version: 6.00 Build 0)  -->
<!DOCTYPE svg PUBLIC "-//W3C//DTD SVG 1.1//EN" "http://www.w3.org/Graphics/SVG/1.1/DTD/svg11.dtd">
<svg version="1.1" id="Layer_1" xmlns="http://www.w3.org/2000/svg" xmlns:xlink="http://www.w3.org/1999/xlink" x="0px" y="0px"
	 width="16px" height="16px" viewBox="42 42 16 16" enable-background="new 42 42 16 16" xml:space="preserve">
<path fill="#1F1F1F" d="M43.261,42C42.563,42,42,42.566,42,43.261v13.385c0,0.694,0.563,1.261,1.261,1.261h13.385
	c0.696,0,1.261-0.566,1.261-1.261V43.261c0-0.694-0.564-1.261-1.261-1.261H43.261z M46.163,44.467l1.758,2.982l-0.745,0.758
	c-0.124,0.125-0.149,0.319-0.062,0.472c1.07,1.908,2.333,3.387,4.107,4.188c0.152,0.067,0.332,0.032,0.447-0.088l0.788-0.807
	l2.834,1.82c-0.312,0.754-0.731,1.207-1.212,1.467c-0.54,0.288-1.192,0.342-1.932,0.186c-1.479-0.312-3.248-1.498-4.691-3.014
	c-1.444-1.515-2.563-3.358-2.852-4.877c-0.145-0.76-0.086-1.426,0.192-1.957C45.042,45.129,45.465,44.742,46.163,44.467
	L46.163,44.467z"/>
</svg>
